<?xml version="1.0" encoding="UTF-8"?>
<svg width="161px" height="49px" viewBox="0 0 161 49" version="1.1" xmlns="http://www.w3.org/2000/svg" xmlns:xlink="http://www.w3.org/1999/xlink">
    <!-- Generator: Sketch 51.2 (57519) - http://www.bohemiancoding.com/sketch -->
    <title>aax-logo-on-white</title>
    <desc>Created with Sketch.</desc>
    <defs></defs>
    <g id="Page-1" stroke="none" stroke-width="1" fill="none" fill-rule="evenodd">
        <g id="aax-logo-on-white" fill-rule="nonzero">
            <ellipse id="Oval" fill="#15A750" cx="17.0757576" cy="2.5019425" rx="2.43939394" ry="2.5019425"></ellipse>
            <ellipse id="Oval-Copy" fill="#00ADEF" cx="13.4166667" cy="11.2587413" rx="2.43939394" ry="2.5019425"></ellipse>
            <ellipse id="Oval-Copy-3" fill="#D7DF21" cx="9.75757576" cy="20.01554" rx="2.43939394" ry="2.5019425"></ellipse>
            <ellipse id="Oval-Copy-6" fill="#F1592B" cx="14.6363636" cy="28.7723388" rx="2.43939394" ry="2.5019425"></ellipse>
            <ellipse id="Oval-Copy-7" fill="#1F409A" cx="20.7348485" cy="36.2781663" rx="2.43939394" ry="2.5019425"></ellipse>
            <ellipse id="Oval-Copy-8" fill="#F7941D" cx="25.6136364" cy="45.034965" rx="2.43939394" ry="2.5019425"></ellipse>
            <ellipse id="Oval-Copy-4" fill="#FFF216" cx="6.09848485" cy="30.02331" rx="2.43939394" ry="2.5019425"></ellipse>
            <ellipse id="Oval-Copy-5" fill="#EC2B8C" cx="2.43939394" cy="38.7801088" rx="2.43939394" ry="2.5019425"></ellipse>
            <ellipse id="Oval-Copy-2" fill="#7E3F98" cx="4.87878788" cy="11.2587413" rx="2.43939394" ry="2.5019425"></ellipse>
            <path d="M35.8633154,18.3980051 L34.3456505,25.6478199 C34.2838623,25.9426239 34.2529687,26.2994865 34.2529687,26.7184185 C34.2529687,27.9286665 34.4421922,29.0496807 34.8206449,30.0814947 L32.5731106,30.0814947 C32.4495342,29.8332387 32.3182362,29.414313 32.1792128,28.824705 C31.8162072,29.266911 31.2755686,29.6257131 30.5572809,29.9011221 C29.8389931,30.1765311 29.0782374,30.3142336 28.2749909,30.3142336 C27.0546741,30.3142336 26.102764,29.9515525 25.4192321,29.2261795 C24.7357002,28.5008065 24.3939394,27.4593106 24.3939394,26.1016606 C24.3939394,23.8208086 25.0639451,21.7979404 26.4039765,20.0329954 C27.7440079,18.2680504 29.4682588,17.3855912 31.5767809,17.3855912 C33.5694502,17.3855912 34.9982807,17.7230591 35.8633154,18.3980051 Z M33.4304175,19.6897056 C33.2218823,19.3561116 32.5190522,19.1893171 31.3219059,19.1893171 C30.1015891,19.1893171 29.0280353,19.8409794 28.1012125,21.1443234 C27.1743896,22.4476674 26.7109851,24.076823 26.7109851,26.031839 C26.7109851,27.684293 27.4447088,28.5105076 28.9121784,28.5105076 C29.6768073,28.5105076 30.3950843,28.112916 31.0670309,27.317721 C31.7389775,26.522526 32.2062437,25.5043038 32.4688435,24.2630238 L33.4304175,19.6897056 Z M40.916792,28.6850617 L40.6619169,30.3142336 C38.1826657,30.3142336 36.9430587,29.3910454 36.9430587,27.5446414 C36.9430587,26.9860654 37.1361439,25.7409251 37.5223201,23.8091831 L39.7466839,12.5097125 L42.0405591,12.5097125 L39.9204623,23.1226035 C39.4802215,25.3258755 39.2601043,26.7067788 39.2601043,27.2653548 C39.2601043,28.2118308 39.812328,28.6850617 40.916792,28.6850617 Z M47.6269562,28.6850617 L47.3720811,30.3142336 C44.8928299,30.3142336 43.6532229,29.3910454 43.6532229,27.5446414 C43.6532229,26.9860654 43.8463081,25.7409251 44.2324843,23.8091831 L46.4568481,12.5097125 L48.7507233,12.5097125 L46.6306265,23.1226035 C46.1903857,25.3258755 45.9702685,26.7067788 45.9702685,27.2653548 C45.9702685,28.2118308 46.5224922,28.6850617 47.6269562,28.6850617 Z M60.8596039,18.3980051 L59.341939,25.6478199 C59.2801508,25.9426239 59.2492572,26.2994865 59.2492572,26.7184185 C59.2492572,27.9286665 59.4384807,29.0496807 59.8169334,30.0814947 L57.5693991,30.0814947 C57.4458227,29.8332387 57.3145247,29.414313 57.1755013,28.824705 C56.8124957,29.266911 56.2718571,29.6257131 55.5535693,29.9011221 C54.8352816,30.1765311 54.0745259,30.3142336 53.2712794,30.3142336 C52.0509625,30.3142336 51.0990525,29.9515525 50.4155206,29.2261795 C49.7319887,28.5008065 49.3902279,27.4593106 49.3902279,26.1016606 C49.3902279,23.8208086 50.0602335,21.7979404 51.400265,20.0329954 C52.7402964,18.2680504 54.4645473,17.3855912 56.5730694,17.3855912 C58.5657387,17.3855912 59.9945692,17.7230591 60.8596039,18.3980051 Z M58.426706,19.6897056 C58.2181708,19.3561116 57.5153406,19.1893171 56.3181944,19.1893171 C55.0978776,19.1893171 54.0243238,19.8409794 53.0975009,21.1443234 C52.170678,22.4476674 51.7072735,24.076823 51.7072735,26.031839 C51.7072735,27.684293 52.4409973,28.5105076 53.9084669,28.5105076 C54.6730958,28.5105076 55.3913728,28.112916 56.0633194,27.317721 C56.735266,26.522526 57.2025322,25.5043038 57.465132,24.2630238 L58.426706,19.6897056 Z M63.1789666,28.8828897 L62.0088585,30.3142336 L60.560705,30.3142336 C61.062734,28.8634876 61.4875215,27.1761479 61.8350801,25.2521639 L64.0594439,12.5097125 L66.1911259,12.5097125 L65.1600406,18.9333044 C65.7393049,17.9014904 66.7703799,17.3855912 68.2532966,17.3855912 C69.5817427,17.3855912 70.6803976,17.8801562 71.549294,18.8693012 C72.4181905,19.8584462 72.8526322,21.1869838 72.8526322,22.8549538 C72.8526322,24.8177278 72.176834,26.5516148 70.8252173,28.0566668 C69.4736005,29.5617189 67.8014826,30.3142336 65.8088134,30.3142336 C64.549879,30.3142336 63.6732721,29.8371237 63.1789666,28.8828897 Z M64.8472394,20.9581323 L63.6887166,27.020979 C63.6732696,27.106317 63.7582271,27.2808694 63.9435916,27.5446414 C64.1289562,27.8084134 64.3896212,28.033392 64.7255945,28.219584 C65.0615678,28.405776 65.399467,28.4988706 65.739302,28.4988706 C67.0523011,28.4988706 68.1683336,27.9170294 69.087433,26.7533294 C70.0065324,25.5896294 70.4660752,24.3522469 70.4660752,23.0411449 C70.4660752,20.5120369 69.3539044,19.2475019 67.1295294,19.2475019 C66.2490477,19.2475019 65.488292,19.8177063 64.8472394,20.9581323 Z M73.4226254,25.4965396 C73.4226254,23.2699936 74.0713917,21.3615542 75.3689438,19.7711642 C76.6664958,18.1807742 78.3154435,17.3855912 80.3158362,17.3855912 C81.8219235,17.3855912 82.9727113,17.7948195 83.7682343,18.6132885 C84.5637573,19.4317575 84.9615128,20.5935006 84.9615128,22.0985526 C84.9615128,23.2932846 84.724018,24.534546 84.2490213,25.822374 C83.7740245,27.110202 82.997822,28.18079 81.9203904,29.03417 C80.8429587,29.88755 79.5512187,30.3142336 78.0451315,30.3142336 C76.5544913,30.3142336 75.4114269,29.8933684 74.6159039,29.0516254 C73.8203809,28.2098824 73.4226254,27.0248656 73.4226254,25.4965396 Z M75.7396711,25.3568963 C75.7396711,27.4593143 76.6162779,28.5105076 78.3695179,28.5105076 C79.6747935,28.5105076 80.711661,27.8743611 81.4801517,26.6020491 C82.2486423,25.3297371 82.6328819,23.8596182 82.6328819,22.1916481 C82.6328819,20.1900841 81.7562751,19.1893171 80.0030351,19.1893171 C79.1148298,19.1893171 78.3328347,19.5073904 77.6570263,20.1435464 C76.981218,20.7797024 76.4927124,21.5942802 76.191495,22.5873042 C75.8902775,23.5803282 75.7396711,24.5035163 75.7396711,25.3568963 Z M89.4125575,17.61833 L87.9644039,25.5663613 C87.9026157,25.9077133 87.8717221,26.2219076 87.8717221,26.5089536 C87.8717221,27.8045396 88.5436586,28.4523229 89.8875518,28.4523229 C90.7139689,28.4523229 91.5075491,28.1420075 92.2683162,27.5213675 C93.0290834,26.9007275 93.4866953,26.1598496 93.6411658,25.2987116 L95.0545637,17.61833 L97.3716093,17.61833 L95.1009046,30.0814947 L92.7838589,30.0814947 L93.1082453,28.3243165 C92.2432106,29.6509345 90.7448694,30.3142336 88.6131767,30.3142336 C87.6477362,30.3142336 86.8947039,30.0271919 86.3540572,29.4530999 C85.8134105,28.8790079 85.5430912,28.0644301 85.5430912,27.0093421 C85.5430912,26.6369581 85.5817083,26.2335481 85.6589435,25.7991001 L87.0955118,17.61833 L89.4125575,17.61833 Z M100.455597,19.3638713 L99.0190287,19.3638713 L99.3897561,17.61833 L100.826324,17.61833 L101.336074,15.011655 L103.850069,14.0574258 L103.027518,17.61833 L106.433575,17.61833 L106.062848,19.3638713 L102.65679,19.3638713 L101.359245,25.5547243 C101.258839,26.0357203 101.208637,26.4080988 101.208637,26.6718708 C101.208637,27.8588448 101.795616,28.4523229 102.969592,28.4523229 C103.541132,28.4523229 104.155143,28.308802 104.811643,28.021756 L104.730546,29.9651253 C104.097217,30.1978653 103.073866,30.3142336 101.660461,30.3142336 C100.779979,30.3142336 100.094527,30.0407682 99.6040828,29.4938292 C99.113639,28.9468902 98.8684208,28.1963149 98.8684208,27.2420809 C98.8684208,27.0248569 98.9031761,26.7572099 98.9726878,26.4391319 L100.455597,19.3638713 Z M115.287006,30.0814947 L112.460211,23.5066226 L107.640756,30.0814947 L104.952983,30.0814947 L111.498637,21.1210495 L108.35904,13.021738 L110.757182,13.0333749 L113.074228,19.2707757 L117.916853,13.0333749 L120.593041,13.0333749 L114.012631,21.411973 L117.882097,30.0814947 L115.287006,30.0814947 Z M121.128278,29.4530999 L120.155119,35.027195 L117.953926,35.027195 L120.386824,21.3421514 C120.494953,20.7447854 120.549017,20.1590652 120.549017,19.5849732 C120.549017,18.9953652 120.491091,18.4212818 120.375239,17.8627058 L122.588017,17.4437759 C122.626635,17.5446299 122.696145,18.0760449 122.796551,19.0380369 C123.159557,18.5880729 123.680887,18.2098761 124.360557,17.9034351 C125.040227,17.5969941 125.673547,17.4437759 126.260535,17.4437759 C127.805239,17.4437759 128.96182,17.8277911 129.73031,18.5958331 C130.498801,19.3638751 130.883041,20.5197998 130.883041,22.0636418 C130.883041,24.4220738 130.232343,26.3964552 128.93093,27.9868452 C127.629516,29.5772352 125.920712,30.3724183 123.804466,30.3724183 C123.348778,30.3724183 122.825517,30.2832026 122.234668,30.1047686 C121.643818,29.9263346 121.275025,29.7091139 121.128278,29.4530999 Z M121.452665,27.6261 C121.591688,27.874356 121.873593,28.0838189 122.298386,28.2544949 C122.72318,28.4251709 123.120936,28.5105076 123.491665,28.5105076 C125.105881,28.5105076 126.351281,27.9616373 127.227901,26.8638803 C128.104521,25.7661233 128.542824,24.2669123 128.542824,22.3662023 C128.542824,21.3421463 128.286021,20.5760553 127.772407,20.0679063 C127.258792,19.5597573 126.488382,19.3056866 125.461154,19.3056866 C125.013189,19.3056866 124.49379,19.4627837 123.902941,19.7769827 C123.312091,20.0911817 122.893096,20.4189523 122.645943,20.7603043 L121.452665,27.6261 Z M134.05971,24.1932021 C133.990198,24.5655861 133.955443,24.9224488 133.955443,25.2638008 C133.955443,26.2878568 134.241209,27.075282 134.81275,27.6261 C135.384291,28.176918 136.183664,28.4523229 137.210892,28.4523229 C138.122268,28.4523229 139.041354,28.1148549 139.968177,27.4399089 L139.736472,29.6974757 C138.500708,30.1086497 137.407846,30.3142336 136.457852,30.3142336 C133.260313,30.3142336 131.661568,28.5144046 131.661568,24.9146925 C131.661568,22.7967585 132.333504,21.0124453 133.677398,19.5616993 C135.021291,18.1109533 136.712717,17.3855912 138.751728,17.3855912 C139.979768,17.3855912 140.960641,17.6493592 141.694376,18.1769032 C142.42811,18.7044472 142.794972,19.4569619 142.794972,20.4344699 C142.794972,21.7921199 142.22344,22.8627079 141.080359,23.6462659 C139.937277,24.4298239 138.535478,24.821597 136.874921,24.821597 C135.762733,24.821597 134.824339,24.6121341 134.05971,24.1932021 Z M134.442023,22.5873042 C135.029011,22.8510762 135.720256,22.9829602 136.515779,22.9829602 C137.720648,22.9829602 138.705383,22.7870736 139.470012,22.3952946 C140.234641,22.0035156 140.616949,21.4313717 140.616949,20.6788457 C140.616949,19.7246117 139.96046,19.2475019 138.647461,19.2475019 C136.647068,19.2475019 135.245269,20.3607582 134.442023,22.5873042 Z M151.984375,19.8060751 C151.520964,19.4336911 150.980325,19.2475019 150.362443,19.2475019 C149.582367,19.2475019 148.837059,19.6101829 148.126494,20.3355559 C147.41593,21.0609289 146.971834,21.9278724 146.794193,22.9364124 L145.531403,30.0814947 L143.33021,30.0814947 L145.519818,17.61833 L147.721011,17.61833 L147.373455,19.6082471 C148.439301,18.126469 149.763865,17.3855912 151.347188,17.3855912 C151.617511,17.3855912 152.038437,17.4398963 152.609978,17.5485083 L151.984375,19.8060751 Z M155.022022,19.3638713 L153.585454,19.3638713 L153.956181,17.61833 L155.39275,17.61833 L155.9025,15.011655 L158.416494,14.0574258 L157.593943,17.61833 L161,17.61833 L160.629273,19.3638713 L157.223216,19.3638713 L155.92567,25.5547243 C155.825264,26.0357203 155.775062,26.4080988 155.775062,26.6718708 C155.775062,27.8588448 156.362041,28.4523229 157.536017,28.4523229 C158.107558,28.4523229 158.721568,28.308802 159.378068,28.021756 L159.296971,29.9651253 C158.663642,30.1978653 157.640291,30.3142336 156.226886,30.3142336 C155.346404,30.3142336 154.660952,30.0407682 154.170508,29.4938292 C153.680064,28.9468902 153.434846,28.1963149 153.434846,27.2420809 C153.434846,27.0248569 153.469601,26.7572099 153.539113,26.4391319 L155.022022,19.3638713 Z" id="allaboutXpert" fill="#585858"></path>
            <path d="M34.1316722,40.03108 C34.2878293,40.03108 34.4208795,40.084193 34.5308269,40.1904205 C34.6407742,40.296648 34.6957471,40.4236573 34.6957471,40.5714521 C34.6957471,40.722326 34.6407742,40.8508747 34.5308269,40.9571023 C34.4208795,41.0633298 34.2878293,41.1164427 34.1316722,41.1164427 C33.978702,41.1164427 33.8472452,41.0633298 33.7372979,40.9571023 C33.6273506,40.8508747 33.5723777,40.722326 33.5723777,40.5714521 C33.5723777,40.4205782 33.6265539,40.2927992 33.7349078,40.1881112 C33.8432617,40.0834232 33.9755152,40.03108 34.1316722,40.03108 Z M33.6345216,46.8480816 L33.6345216,42.6405691 L32.9318182,42.6405691 L32.9318182,41.9015988 L34.5427776,41.9015988 L34.5427776,46.8480816 L33.6345216,46.8480816 Z M38.7695145,46.8480816 L38.7695145,43.9707158 C38.7695145,43.4441967 38.6874536,43.075485 38.5233293,42.8645695 C38.359205,42.653654 38.0843408,42.5481978 37.6987284,42.5481978 C37.4915813,42.5481978 37.2748767,42.6082386 37.0486083,42.7283218 C36.8223398,42.8484051 36.6486575,42.9961977 36.5275561,43.1717041 L36.5275561,46.8480816 L35.6193001,46.8480816 L35.6193001,41.9015988 L36.2407384,41.9015988 L36.5275561,42.5389607 C36.8271228,42.0524694 37.3163014,41.8092275 37.9951067,41.8092275 C39.1168882,41.8092275 39.6777706,42.4681361 39.6777706,43.7859732 L39.6777706,46.8480816 L38.7695145,46.8480816 Z M43.751538,46.8480816 L43.751538,43.9707158 C43.751538,43.4441967 43.6694771,43.075485 43.5053528,42.8645695 C43.3412285,42.653654 43.0663643,42.5481978 42.6807519,42.5481978 C42.4736048,42.5481978 42.2569002,42.6082386 42.0306318,42.7283218 C41.8043634,42.8484051 41.630681,42.9961977 41.5095796,43.1717041 L41.5095796,46.8480816 L40.6013236,46.8480816 L40.6013236,41.9015988 L41.2227619,41.9015988 L41.5095796,42.5389607 C41.8091463,42.0524694 42.2983249,41.8092275 42.9771302,41.8092275 C44.0989117,41.8092275 44.6597941,42.4681361 44.6597941,43.7859732 L44.6597941,46.8480816 L43.751538,46.8480816 Z M45.2487264,44.3632938 C45.2487264,43.5996872 45.4614474,42.983115 45.8868958,42.5135586 C46.3123442,42.0440022 46.8724298,41.8092275 47.5671695,41.8092275 C48.3001518,41.8092275 48.8690012,42.0347651 49.2737349,42.4858472 C49.6784685,42.9369293 49.8808323,43.5627385 49.8808323,44.3632938 C49.8808323,45.1607699 49.6736883,45.7896582 49.259394,46.2499775 C48.8450997,46.7102967 48.2810305,46.9404529 47.5671695,46.9404529 C46.8373742,46.9404529 46.2685247,46.7079875 45.8606042,46.2430496 C45.4526836,45.7781118 45.2487264,45.1515328 45.2487264,44.3632938 Z M46.2047854,44.3632938 C46.2047854,45.6041544 46.6589089,46.2245754 47.5671695,46.2245754 C47.9910245,46.2245754 48.3232517,46.0583087 48.563861,45.7257704 C48.8044704,45.393232 48.9247733,44.9390777 48.9247733,44.3632938 C48.9247733,43.1378285 48.4722433,42.525105 47.5671695,42.525105 C47.1528752,42.525105 46.8222414,42.6882926 46.5752583,43.0146729 C46.3282751,43.3410531 46.2047854,43.7905889 46.2047854,44.3632938 Z M52.3149586,46.9404529 L52.0759438,46.9404529 L49.8817884,41.8877431 L50.8760898,41.8877431 L52.2289133,45.3516666 L53.6104185,41.8877431 L54.5616973,41.8877431 L52.3149586,46.9404529 Z M57.7893525,46.2799981 C57.4260482,46.7203035 56.8699461,46.9404529 56.1210295,46.9404529 C55.7194827,46.9404529 55.3713214,46.7995881 55.076535,46.5178542 C54.7817487,46.2361204 54.6343577,45.8858827 54.6343577,45.4671307 C54.6343577,44.9652442 54.8614195,44.5411102 55.3155498,44.1947161 C55.7696801,43.8483221 56.3488867,43.6751276 57.053187,43.6751276 C57.2443998,43.6751276 57.4611043,43.7151548 57.7033072,43.7952103 C57.7033072,42.9946551 57.3336347,42.5943835 56.5942787,42.5943835 C56.0270142,42.5943835 55.5904183,42.7421761 55.2844779,43.0377657 L54.9020542,42.3034139 C55.0741457,42.1679353 55.3123614,42.0517026 55.6167084,41.9547122 C55.9210553,41.8577219 56.2118537,41.8092275 56.4891122,41.8092275 C57.2316551,41.8092275 57.7710263,41.9724151 58.1072421,42.2987953 C58.4434579,42.6251755 58.6115632,43.1439891 58.6115632,43.8552516 L58.6115632,45.6287805 C58.6115632,46.0629278 58.7454102,46.3523549 59.013108,46.4970707 L59.013108,46.9358343 C58.64343,46.9358343 58.3669724,46.8850306 58.1837268,46.7834217 C58.0004813,46.6818128 57.8690245,46.5140066 57.7893525,46.2799981 Z M57.7033072,44.4187165 C57.416488,44.3571354 57.2157176,44.3263452 57.10099,44.3263452 C56.6420794,44.3263452 56.2676267,44.4402687 55.9776206,44.668119 C55.6876146,44.8959694 55.5426138,45.165383 55.5426138,45.4763679 C55.5426138,45.9905706 55.8565167,46.2476682 56.4843319,46.2476682 C56.9432425,46.2476682 57.3495636,46.0367558 57.7033072,45.6149248 L57.7033072,44.4187165 Z M59.9988048,42.5943835 L59.4060482,42.5943835 L59.4060482,41.9015988 L59.9988048,41.9015988 L59.9988048,40.8670402 L60.9070609,40.529885 L60.9070609,41.9015988 L62.3124677,41.9015988 L62.3124677,42.5943835 L60.9070609,42.5943835 L60.9070609,45.0514599 C60.9070609,45.4671328 60.9795613,45.762718 61.1245643,45.9382243 C61.2695673,46.1137307 61.5030027,46.2014825 61.8248776,46.2014825 C62.0575197,46.2014825 62.2981255,46.1445208 62.5467021,46.0305956 L62.6805504,46.8018959 C62.3044986,46.8942677 61.8918039,46.9404529 61.442454,46.9404529 C61.0377203,46.9404529 60.6959326,46.7949696 60.4170807,46.5039985 C60.1382287,46.2130275 59.9988048,45.8458553 59.9988048,45.4024708 L59.9988048,42.5943835 Z M64.1251555,40.03108 C64.2813126,40.03108 64.4143628,40.084193 64.5243102,40.1904205 C64.6342575,40.296648 64.6892303,40.4236573 64.6892303,40.5714521 C64.6892303,40.722326 64.6342575,40.8508747 64.5243102,40.9571023 C64.4143628,41.0633298 64.2813126,41.1164427 64.1251555,41.1164427 C63.9721853,41.1164427 63.8407285,41.0633298 63.7307812,40.9571023 C63.6208338,40.8508747 63.565861,40.722326 63.565861,40.5714521 C63.565861,40.4205782 63.6200371,40.2927992 63.728391,40.1881112 C63.8367449,40.0834232 63.9689984,40.03108 64.1251555,40.03108 Z M63.6280048,46.8480816 L63.6280048,42.6405691 L62.9253015,42.6405691 L62.9253015,41.9015988 L64.5362609,41.9015988 L64.5362609,46.8480816 L63.6280048,46.8480816 Z M67.4579772,46.9404529 L67.2189625,46.9404529 L65.024807,41.8877431 L66.0191084,41.8877431 L67.3719319,45.3516666 L68.7534372,41.8877431 L69.7047159,41.8877431 L67.4579772,46.9404529 Z M74.3521188,44.4602836 L70.661731,44.4602836 C70.661731,45.0391466 70.8258528,45.4840639 71.1541014,45.7950488 C71.4441074,46.066006 71.8169667,46.2014825 72.2726904,46.2014825 C72.7921517,46.2014825 73.2255608,46.0552294 73.5729307,45.7627189 L73.9553543,46.3954622 C73.8151316,46.5309408 73.6000205,46.6479433 73.3100144,46.7464732 C72.9467102,46.8757936 72.5419826,46.9404529 72.0958195,46.9404529 C71.4520699,46.9404529 70.9055283,46.7295405 70.4561783,46.3077095 C69.9558382,45.8427717 69.705672,45.2177322 69.705672,44.4325722 C69.705672,43.6166217 69.9622119,42.9623316 70.4752995,42.4696822 C70.9342101,42.0293768 71.4775649,41.8092275 72.1053801,41.8092275 C72.8351754,41.8092275 73.4072117,42.0078238 73.821506,42.4050223 C74.2230528,42.7868256 74.4238232,43.2933231 74.4238232,43.9245301 C74.4238232,44.1185108 74.399922,44.2970935 74.3521188,44.4602836 Z M72.1484027,42.5481978 C71.7436691,42.5481978 71.4042715,42.6744373 71.1301999,42.9269201 C70.8688758,43.1670867 70.7206881,43.4657509 70.6856324,43.8229217 L73.5203474,43.8229217 C73.5203474,43.46883 73.4056215,43.1732448 73.1761662,42.9361573 C72.9244027,42.6775163 72.5818183,42.5481978 72.1484027,42.5481978 Z M78.503327,46.5755863 L78.503327,48.7878788 L77.5950709,48.7878788 L77.5950709,41.9015988 L78.503327,41.9015988 L78.503327,42.3080325 C78.8475099,41.9754941 79.2633914,41.8092275 79.750984,41.8092275 C80.4775925,41.8092275 81.0432551,42.0278373 81.4479887,42.4650637 C81.8527224,42.90229 82.0550862,43.5427245 82.0550862,44.3863866 C82.0550862,45.1376769 81.851129,45.7511701 81.4432084,46.2268846 C81.0352879,46.7025992 80.4457241,46.9404529 79.6744993,46.9404529 C79.4577915,46.9404529 79.2259495,46.9035047 78.9789663,46.8296073 C78.7319832,46.7557099 78.5734383,46.6710371 78.503327,46.5755863 Z M78.503327,42.9684872 L78.503327,45.8504716 C78.5606908,45.9336062 78.6817904,46.0128908 78.8666294,46.0883277 C79.0514684,46.1637646 79.2315244,46.2014825 79.4068027,46.2014825 C80.534958,46.2014825 81.0990272,45.5856801 81.0990272,44.3540566 C81.0990272,43.7290077 80.9651803,43.2717744 80.6974824,42.9823429 C80.4297845,42.6929114 80.0011557,42.5481978 79.411583,42.5481978 C79.2841079,42.5481978 79.1279531,42.591304 78.9431141,42.6775176 C78.7582751,42.7637313 78.6116809,42.8607202 78.503327,42.9684872 Z M85.4643926,42.7467961 C85.2668061,42.6143966 85.0676291,42.5481978 84.8668558,42.5481978 C84.5449809,42.5481978 84.2637431,42.6913719 84.0231337,42.9777243 C83.7825243,43.2640768 83.6622214,43.6089262 83.6622214,44.0122828 L83.6622214,46.8480816 L82.7539653,46.8480816 L82.7539653,41.9015988 L83.6622214,41.9015988 L83.6622214,42.6913733 C83.9936568,42.1032731 84.4860223,41.8092275 85.1393326,41.8092275 C85.3018634,41.8092275 85.5360955,41.8369386 85.8420359,41.8923616 L85.4643926,42.7467961 Z M85.7856284,44.3632938 C85.7856284,43.5996872 85.9983494,42.983115 86.4237978,42.5135586 C86.8492462,42.0440022 87.4093319,41.8092275 88.1040716,41.8092275 C88.8370538,41.8092275 89.4059032,42.0347651 89.8106369,42.4858472 C90.2153706,42.9369293 90.4177344,43.5627385 90.4177344,44.3632938 C90.4177344,45.1607699 90.2105903,45.7896582 89.796296,46.2499775 C89.3820017,46.7102967 88.8179325,46.9404529 88.1040716,46.9404529 C87.3742762,46.9404529 86.8054268,46.7079875 86.3975062,46.2430496 C85.9895857,45.7781118 85.7856284,45.1515328 85.7856284,44.3632938 Z M86.7416875,44.3632938 C86.7416875,45.6041544 87.1958109,46.2245754 88.1040716,46.2245754 C88.5279265,46.2245754 88.8601537,46.0583087 89.1007631,45.7257704 C89.3413725,45.393232 89.4616754,44.9390777 89.4616754,44.3632938 C89.4616754,43.1378285 89.0091453,42.525105 88.1040716,42.525105 C87.6897772,42.525105 87.3591435,42.6882926 87.1121603,43.0146729 C86.8651772,43.3410531 86.7416875,43.7905889 86.7416875,44.3632938 Z M92.4072932,40.03108 C92.5634502,40.03108 92.6965005,40.084193 92.8064478,40.1904205 C92.9163951,40.296648 92.971368,40.4236573 92.971368,40.5714521 C92.971368,40.722326 92.9163951,40.8508747 92.8064478,40.9571023 C92.6965005,41.0633298 92.5634502,41.1164427 92.4072932,41.1164427 C92.2511361,41.1164427 92.1188826,41.0633298 92.0105287,40.9571023 C91.9021748,40.8508747 91.8479986,40.722326 91.8479986,40.5714521 C91.8479986,40.4205782 91.9021748,40.2927992 92.0105287,40.1881112 C92.1188826,40.0834232 92.2511361,40.03108 92.4072932,40.03108 Z M90.4473722,48.7878788 L90.4473722,48.0027228 C91.0720005,48.0027228 91.4998327,47.9111222 91.7308814,47.7279182 C91.9619302,47.5447142 92.0774528,47.2437407 92.0774528,46.8249888 L92.0774528,42.6405691 L91.0592499,42.6405691 L91.0592499,41.9015988 L92.9857089,41.9015988 L92.9857089,46.8065145 C92.9857089,47.4869865 92.7785648,47.987326 92.3642705,48.3075481 C91.9499762,48.6277701 91.3110165,48.7878788 90.4473722,48.7878788 Z M98.5413678,44.4602836 L94.85098,44.4602836 C94.85098,45.0391466 95.0151018,45.4840639 95.3433504,45.7950488 C95.6333564,46.066006 96.0062157,46.2014825 96.4619394,46.2014825 C96.9814008,46.2014825 97.4148098,46.0552294 97.7621797,45.7627189 L98.1446033,46.3954622 C98.0043806,46.5309408 97.7892695,46.6479433 97.4992635,46.7464732 C97.1359592,46.8757936 96.7312316,46.9404529 96.2850685,46.9404529 C95.6413189,46.9404529 95.0947773,46.7295405 94.6454273,46.3077095 C94.1450872,45.8427717 93.894921,45.2177322 93.894921,44.4325722 C93.894921,43.6166217 94.1514609,42.9623316 94.6645485,42.4696822 C95.1234591,42.0293768 95.6668139,41.8092275 96.2946291,41.8092275 C97.0244245,41.8092275 97.5964607,42.0078238 98.010755,42.4050223 C98.4123018,42.7868256 98.6130722,43.2933231 98.6130722,43.9245301 C98.6130722,44.1185108 98.589171,44.2970935 98.5413678,44.4602836 Z M96.3376518,42.5481978 C95.9329181,42.5481978 95.5935205,42.6744373 95.3194489,42.9269201 C95.0581248,43.1670867 94.9099371,43.4657509 94.8748815,43.8229217 L97.7095964,43.8229217 C97.7095964,43.46883 97.5948705,43.1732448 97.3654152,42.9361573 C97.1136517,42.6775163 96.7710673,42.5481978 96.3376518,42.5481978 Z M103.064483,42.3034139 L102.615135,42.9223016 C102.522716,42.8330089 102.359391,42.748336 102.125155,42.6682805 C101.890919,42.588225 101.660671,42.5481978 101.434402,42.5481978 C100.940436,42.5481978 100.548456,42.7152342 100.25845,43.0493121 C99.9684437,43.3833899 99.8234429,43.841393 99.8234429,44.4233351 C99.8234429,45.0021981 99.9716306,45.4432666 100.26801,45.7465539 C100.56439,46.0498412 100.975491,46.2014825 101.501326,46.2014825 C101.909247,46.2014825 102.320348,46.0490714 102.734643,45.7442446 L103.093165,46.483215 C102.605572,46.7880418 102.001668,46.9404529 101.281433,46.9404529 C100.583506,46.9404529 100.00669,46.7141455 99.5509661,46.2615239 C99.0952423,45.8089023 98.8673839,45.1961788 98.8673839,44.4233351 C98.8673839,43.6350961 99.1040061,43.0023591 99.5772577,42.525105 C100.050509,42.0478509 100.698233,41.8092275 101.520448,41.8092275 C101.784959,41.8092275 102.071773,41.8631102 102.380901,41.9708772 C102.690028,42.0786443 102.917887,42.1894887 103.064483,42.3034139 Z M104.007157,42.5943835 L103.414401,42.5943835 L103.414401,41.9015988 L104.007157,41.9015988 L104.007157,40.8670402 L104.915413,40.529885 L104.915413,41.9015988 L106.32082,41.9015988 L106.32082,42.5943835 L104.915413,42.5943835 L104.915413,45.0514599 C104.915413,45.4671328 104.987914,45.762718 105.132917,45.9382243 C105.27792,46.1137307 105.511355,46.2014825 105.83323,46.2014825 C106.065872,46.2014825 106.306478,46.1445208 106.555054,46.0305956 L106.688903,46.8018959 C106.312851,46.8942677 105.900156,46.9404529 105.450806,46.9404529 C105.046073,46.9404529 104.704285,46.7949696 104.425433,46.5039985 C104.146581,46.2130275 104.007157,45.8458553 104.007157,45.4024708 L104.007157,42.5943835 Z M115.706451,46.8480816 L115.706451,43.7166947 C115.706451,42.9376929 115.357493,42.5481978 114.659567,42.5481978 C114.439672,42.5481978 114.234121,42.6136268 114.042909,42.7444868 C113.851696,42.8753468 113.721036,43.0239092 113.650924,43.1901783 L113.650924,46.8480816 L112.742668,46.8480816 L112.742668,43.3333538 C112.742668,43.0901082 112.64786,42.8984397 112.458241,42.7583425 C112.268621,42.6182453 112.017658,42.5481978 111.705344,42.5481978 C111.523692,42.5481978 111.330092,42.6159361 111.124538,42.7514147 C110.918985,42.8868932 110.773187,43.0362253 110.687141,43.1994154 L110.687141,46.8480816 L109.778885,46.8480816 L109.778885,41.9015988 L110.371642,41.9015988 L110.672801,42.4743008 C111.023357,42.0309163 111.461547,41.8092275 111.987382,41.8092275 C112.720364,41.8092275 113.233444,42.0293768 113.526637,42.4696822 C113.628617,42.2818596 113.818233,42.12483 114.095492,41.9985886 C114.37275,41.8723472 114.657972,41.8092275 114.951165,41.8092275 C115.480187,41.8092275 115.889694,41.9608688 116.1797,42.2641561 C116.469706,42.5674434 116.614707,42.9931168 116.614707,43.5411892 L116.614707,46.8480816 L115.706451,46.8480816 Z M120.430339,46.2799981 C120.067035,46.7203035 119.510932,46.9404529 118.762016,46.9404529 C118.360469,46.9404529 118.012308,46.7995881 117.717521,46.5178542 C117.422735,46.2361204 117.275344,45.8858827 117.275344,45.4671307 C117.275344,44.9652442 117.502406,44.5411102 117.956536,44.1947161 C118.410666,43.8483221 118.989873,43.6751276 119.694173,43.6751276 C119.885386,43.6751276 120.102091,43.7151548 120.344294,43.7952103 C120.344294,42.9946551 119.974621,42.5943835 119.235265,42.5943835 C118.668001,42.5943835 118.231405,42.7421761 117.925464,43.0377657 L117.543041,42.3034139 C117.715132,42.1679353 117.953348,42.0517026 118.257695,41.9547122 C118.562042,41.8577219 118.85284,41.8092275 119.130099,41.8092275 C119.872641,41.8092275 120.412013,41.9724151 120.748228,42.2987953 C121.084444,42.6251755 121.25255,43.1439891 121.25255,43.8552516 L121.25255,45.6287805 C121.25255,46.0629278 121.386397,46.3523549 121.654094,46.4970707 L121.654094,46.9358343 C121.284416,46.9358343 121.007959,46.8850306 120.824713,46.7834217 C120.641468,46.6818128 120.510011,46.5140066 120.430339,46.2799981 Z M120.344294,44.4187165 C120.057474,44.3571354 119.856704,44.3263452 119.741976,44.3263452 C119.283066,44.3263452 118.908613,44.4402687 118.618607,44.668119 C118.328601,44.8959694 118.1836,45.165383 118.1836,45.4763679 C118.1836,45.9905706 118.497503,46.2476682 119.125318,46.2476682 C119.584229,46.2476682 119.99055,46.0367558 120.344294,45.6149248 L120.344294,44.4187165 Z M125.464946,46.8480816 L125.464946,43.9707158 C125.464946,43.4441967 125.382885,43.075485 125.21876,42.8645695 C125.054636,42.653654 124.779772,42.5481978 124.394159,42.5481978 C124.187012,42.5481978 123.970308,42.6082386 123.744039,42.7283218 C123.517771,42.8484051 123.344089,42.9961977 123.222987,43.1717041 L123.222987,46.8480816 L122.314731,46.8480816 L122.314731,41.9015988 L122.936169,41.9015988 L123.222987,42.5389607 C123.522554,42.0524694 124.011732,41.8092275 124.690538,41.8092275 C125.812319,41.8092275 126.373202,42.4681361 126.373202,43.7859732 L126.373202,46.8480816 L125.464946,46.8480816 Z M130.188833,46.2799981 C129.825529,46.7203035 129.269427,46.9404529 128.52051,46.9404529 C128.118963,46.9404529 127.770802,46.7995881 127.476016,46.5178542 C127.181229,46.2361204 127.033838,45.8858827 127.033838,45.4671307 C127.033838,44.9652442 127.2609,44.5411102 127.71503,44.1947161 C128.169161,43.8483221 128.748367,43.6751276 129.452668,43.6751276 C129.64388,43.6751276 129.860585,43.7151548 130.102788,43.7952103 C130.102788,42.9946551 129.733115,42.5943835 128.993759,42.5943835 C128.426495,42.5943835 127.989899,42.7421761 127.683959,43.0377657 L127.301535,42.3034139 C127.473626,42.1679353 127.711842,42.0517026 128.016189,41.9547122 C128.320536,41.8577219 128.611334,41.8092275 128.888593,41.8092275 C129.631136,41.8092275 130.170507,41.9724151 130.506723,42.2987953 C130.842939,42.6251755 131.011044,43.1439891 131.011044,43.8552516 L131.011044,45.6287805 C131.011044,46.0629278 131.144891,46.3523549 131.412589,46.4970707 L131.412589,46.9358343 C131.042911,46.9358343 130.766453,46.8850306 130.583208,46.7834217 C130.399962,46.6818128 130.268505,46.5140066 130.188833,46.2799981 Z M130.102788,44.4187165 C129.815969,44.3571354 129.615198,44.3263452 129.500471,44.3263452 C129.04156,44.3263452 128.667107,44.4402687 128.377101,44.668119 C128.087095,44.8959694 127.942094,45.165383 127.942094,45.4763679 C127.942094,45.9905706 128.255997,46.2476682 128.883813,46.2476682 C129.342723,46.2476682 129.749044,46.0367558 130.102788,45.6149248 L130.102788,44.4187165 Z M131.886794,48.2013211 L132.379164,47.4992992 C132.908186,47.8410747 133.395772,48.0119599 133.841935,48.0119599 C134.253042,48.0119599 134.577302,47.9434519 134.814725,47.8064338 C135.052147,47.6694157 135.170857,47.4993002 135.170857,47.2960824 C135.170857,46.8958048 134.871295,46.695669 134.272161,46.695669 C134.170181,46.695669 133.985345,46.7203011 133.717647,46.769566 C133.449949,46.8188309 133.241212,46.843463 133.091428,46.843463 C132.36482,46.843463 132.001521,46.578668 132.001521,46.0490699 C132.001521,45.8858798 132.086769,45.7380872 132.257267,45.6056877 C132.427765,45.4732882 132.638892,45.3778388 132.890656,45.3193367 C132.170421,44.9929565 131.810309,44.4264182 131.810309,43.6197048 C131.810309,43.102423 131.996739,42.6713613 132.369604,42.3265067 C132.742469,41.9816522 133.202966,41.8092275 133.751109,41.8092275 C134.254636,41.8092275 134.64821,41.9092954 134.931842,42.1094342 L135.38597,41.5829178 L135.978727,42.1232899 L135.433773,42.5204864 C135.666415,42.812997 135.782734,43.1947945 135.782734,43.6658905 C135.782734,44.164698 135.621799,44.5834437 135.299925,44.9221401 C134.97805,45.2608365 134.555795,45.4548143 134.033146,45.5040793 L133.28264,45.5779763 C133.193407,45.5872135 133.073901,45.6203128 132.924118,45.6772754 C132.774335,45.734238 132.699444,45.8089041 132.699444,45.9012758 C132.699444,46.0275172 132.855599,46.090637 133.167913,46.090637 C133.304949,46.090637 133.518467,46.0667746 133.808473,46.0190492 C134.098479,45.9713238 134.31359,45.9474615 134.453812,45.9474615 C134.957339,45.9474615 135.350116,46.0636942 135.632155,46.2961631 C135.914194,46.528632 136.055211,46.8511586 136.055211,47.2637524 C136.055211,47.7194531 135.844084,48.0873951 135.421822,48.3675894 C134.999561,48.6477837 134.46497,48.7878788 133.818033,48.7878788 C133.486598,48.7878788 133.13764,48.7309171 132.771149,48.6169919 C132.404657,48.5030667 132.109875,48.3645112 131.886794,48.2013211 Z M133.813253,42.5158679 C133.497752,42.5158679 133.240415,42.6236333 133.041235,42.8391674 C132.842055,43.0547015 132.742467,43.3164175 132.742467,43.6243234 C132.742467,43.969178 132.838868,44.2547564 133.031675,44.4810672 C133.224481,44.707378 133.485004,44.8205317 133.813253,44.8205317 C134.135128,44.8205317 134.386887,44.710457 134.568539,44.4903043 C134.750192,44.2701516 134.841016,43.9814942 134.841016,43.6243234 C134.841016,43.3164175 134.743021,43.0547015 134.547028,42.8391674 C134.351035,42.6236333 134.106446,42.5158679 133.813253,42.5158679 Z M142.547808,46.8480816 L142.547808,43.7166947 C142.547808,42.9376929 142.19885,42.5481978 141.500923,42.5481978 C141.281029,42.5481978 141.075478,42.6136268 140.884265,42.7444868 C140.693053,42.8753468 140.562392,43.0239092 140.492281,43.1901783 L140.492281,46.8480816 L139.584025,46.8480816 L139.584025,43.3333538 C139.584025,43.0901082 139.489217,42.8984397 139.299598,42.7583425 C139.109978,42.6182453 138.859015,42.5481978 138.546701,42.5481978 C138.365049,42.5481978 138.171449,42.6159361 137.965895,42.7514147 C137.760341,42.8868932 137.614544,43.0362253 137.528498,43.1994154 L137.528498,46.8480816 L136.620242,46.8480816 L136.620242,41.9015988 L137.212999,41.9015988 L137.514157,42.4743008 C137.864714,42.0309163 138.302903,41.8092275 138.828738,41.8092275 C139.561721,41.8092275 140.074801,42.0293768 140.367993,42.4696822 C140.469974,42.2818596 140.65959,42.12483 140.936849,41.9985886 C141.214107,41.8723472 141.499328,41.8092275 141.792521,41.8092275 C142.321543,41.8092275 142.731051,41.9608688 143.021057,42.2641561 C143.311063,42.5674434 143.456064,42.9931168 143.456064,43.5411892 L143.456064,46.8480816 L142.547808,46.8480816 Z M148.691443,44.4602836 L145.001055,44.4602836 C145.001055,45.0391466 145.165177,45.4840639 145.493426,45.7950488 C145.783432,46.066006 146.156291,46.2014825 146.612015,46.2014825 C147.131476,46.2014825 147.564885,46.0552294 147.912255,45.7627189 L148.294679,46.3954622 C148.154456,46.5309408 147.939345,46.6479433 147.649339,46.7464732 C147.286035,46.8757936 146.881307,46.9404529 146.435144,46.9404529 C145.791394,46.9404529 145.244853,46.7295405 144.795503,46.3077095 C144.295163,45.8427717 144.044996,45.2177322 144.044996,44.4325722 C144.044996,43.6166217 144.301536,42.9623316 144.814624,42.4696822 C145.273535,42.0293768 145.816889,41.8092275 146.444705,41.8092275 C147.1745,41.8092275 147.746536,42.0078238 148.16083,42.4050223 C148.562377,42.7868256 148.763148,43.2933231 148.763148,43.9245301 C148.763148,44.1185108 148.739246,44.2970935 148.691443,44.4602836 Z M146.487727,42.5481978 C146.082994,42.5481978 145.743596,42.6744373 145.469524,42.9269201 C145.2082,43.1670867 145.060013,43.4657509 145.024957,43.8229217 L147.859672,43.8229217 C147.859672,43.46883 147.744946,43.1732448 147.515491,42.9361573 C147.263727,42.6775163 146.921143,42.5481978 146.487727,42.5481978 Z M152.502294,46.8480816 L152.502294,43.9707158 C152.502294,43.4441967 152.420234,43.075485 152.256109,42.8645695 C152.091985,42.653654 151.817121,42.5481978 151.431508,42.5481978 C151.224361,42.5481978 151.007657,42.6082386 150.781388,42.7283218 C150.55512,42.8484051 150.381437,42.9961977 150.260336,43.1717041 L150.260336,46.8480816 L149.35208,46.8480816 L149.35208,41.9015988 L149.973518,41.9015988 L150.260336,42.5389607 C150.559903,42.0524694 151.049081,41.8092275 151.727887,41.8092275 C152.849668,41.8092275 153.410551,42.4681361 153.410551,43.7859732 L153.410551,46.8480816 L152.502294,46.8480816 Z M154.659164,42.5943835 L154.066407,42.5943835 L154.066407,41.9015988 L154.659164,41.9015988 L154.659164,40.8670402 L155.56742,40.529885 L155.56742,41.9015988 L156.972826,41.9015988 L156.972826,42.5943835 L155.56742,42.5943835 L155.56742,45.0514599 C155.56742,45.4671328 155.63992,45.762718 155.784923,45.9382243 C155.929926,46.1137307 156.163361,46.2014825 156.485236,46.2014825 C156.717878,46.2014825 156.958484,46.1445208 157.207061,46.0305956 L157.340909,46.8018959 C156.964857,46.8942677 156.552163,46.9404529 156.102813,46.9404529 C155.698079,46.9404529 155.356291,46.7949696 155.077439,46.5039985 C154.798587,46.2130275 154.659164,45.8458553 154.659164,45.4024708 L154.659164,42.5943835 Z" id="innovative-project-m" fill="#585858"></path>
        </g>
    </g>
</svg>