<?xml version="1.0" encoding="UTF-8"?>
<svg width="132px" height="21px" viewBox="0 0 132 21" version="1.1" xmlns="http://www.w3.org/2000/svg" xmlns:xlink="http://www.w3.org/1999/xlink">
    <!-- Generator: Sketch 51.2 (57519) - http://www.bohemiancoding.com/sketch -->
    <title>aaa logo on white</title>
    <desc>Created with Sketch.</desc>
    <defs></defs>
    <g id="surveys" stroke="none" stroke-width="1" fill="none" fill-rule="evenodd">
        <g id="02-Dashboard---New-Survey" transform="translate(-42.000000, -22.000000)">
            <g id="header">
                <g id="aaa-logo-on-white" transform="translate(42.000000, 22.000000)">
                    <path d="M34.1773793,10.1628533 L34.1773793,16.9057873 L33.3528276,16.9057873 L33.3528276,15.6137281 C33.1545737,16.062362 32.8549445,16.4055618 32.453931,16.6433378 C32.0529175,16.8811138 31.5730603,17 31.0143448,17 C30.4105717,17 29.8811517,16.8586824 29.426069,16.5760431 C28.9709862,16.2934037 28.6195415,15.8896392 28.3717241,15.3647376 C28.1239068,14.8398359 28,14.2274598 28,13.5275908 C28,12.8277219 28.1261597,12.2108596 28.3784828,11.6769852 C28.6308059,11.1431108 28.9845035,10.7303738 29.4395862,10.4387618 C29.8946689,10.1471497 30.4195832,10.0013459 31.0143448,10.0013459 C31.5640487,10.0013459 32.0394003,10.117989 32.4404138,10.3512786 C32.8414273,10.5845682 33.1455622,10.9255249 33.3528276,11.3741588 L33.3528276,10.1628533 L34.1773793,10.1628533 Z M31.136,16.2732167 C31.8389001,16.2732167 32.38409,16.030958 32.7715862,15.5464334 C33.1590824,15.0619087 33.3528276,14.3799954 33.3528276,13.5006729 C33.3528276,12.6123778 33.1590824,11.9259782 32.7715862,11.4414536 C32.38409,10.9569289 31.8343944,10.7146703 31.1224828,10.7146703 C30.4105712,10.7146703 29.8563698,10.9636583 29.4598621,11.461642 C29.0633543,11.9596256 28.8651034,12.6482684 28.8651034,13.5275908 C28.8651034,14.3979406 29.0633543,15.0731246 29.4598621,15.5531629 C29.8563698,16.0332011 30.4150769,16.2732167 31.136,16.2732167 Z M36.4212414,16.9057873 L36.4212414,7 L37.2322759,7 L37.2322759,16.9057873 L36.4212414,16.9057873 Z M39.5031724,16.9057873 L39.5031724,7 L40.3142069,7 L40.3142069,16.9057873 L39.5031724,16.9057873 Z M48.329931,10.1628533 L48.329931,16.9057873 L47.5053793,16.9057873 L47.5053793,15.6137281 C47.3071254,16.062362 47.0074963,16.4055618 46.6064828,16.6433378 C46.2054693,16.8811138 45.725612,17 45.1668966,17 C44.5631234,17 44.0337034,16.8586824 43.5786207,16.5760431 C43.123538,16.2934037 42.7720932,15.8896392 42.5242759,15.3647376 C42.2764585,14.8398359 42.1525517,14.2274598 42.1525517,13.5275908 C42.1525517,12.8277219 42.2787114,12.2108596 42.5310345,11.6769852 C42.7833576,11.1431108 43.1370552,10.7303738 43.5921379,10.4387618 C44.0472207,10.1471497 44.572135,10.0013459 45.1668966,10.0013459 C45.7166004,10.0013459 46.191952,10.117989 46.5929655,10.3512786 C46.993979,10.5845682 47.2981139,10.9255249 47.5053793,11.3741588 L47.5053793,10.1628533 L48.329931,10.1628533 Z M45.2885517,16.2732167 C45.9914518,16.2732167 46.5366417,16.030958 46.9241379,15.5464334 C47.3116341,15.0619087 47.5053793,14.3799954 47.5053793,13.5006729 C47.5053793,12.6123778 47.3116341,11.9259782 46.9241379,11.4414536 C46.5366417,10.9569289 45.9869461,10.7146703 45.2750345,10.7146703 C44.5631229,10.7146703 44.0089215,10.9636583 43.6124138,11.461642 C43.2159061,11.9596256 43.0176552,12.6482684 43.0176552,13.5275908 C43.0176552,14.3979406 43.2159061,15.0731246 43.6124138,15.5531629 C44.0089215,16.0332011 44.5676286,16.2732167 45.2885517,16.2732167 Z M53.7368276,10.0013459 C54.3315892,10.0013459 54.8587563,10.1449066 55.3183448,10.4320323 C55.7779333,10.719158 56.1316309,11.1229225 56.3794483,11.6433378 C56.6272656,12.1637532 56.7511724,12.7738861 56.7511724,13.473755 C56.7511724,14.173624 56.6250128,14.7904863 56.3726897,15.3243607 C56.1203666,15.8582351 55.7666689,16.2709721 55.3115862,16.5625841 C54.8565035,16.8541962 54.3315892,17 53.7368276,17 C53.1781121,17 52.6982549,16.8788707 52.2972414,16.6366083 C51.8962279,16.394346 51.5965987,16.0444168 51.3983448,15.5868102 L51.3983448,16.9057873 L50.5737931,16.9057873 L50.5737931,7 L51.3848276,7 L51.3848276,11.4279946 C51.5830815,10.9614153 51.8849635,10.6069999 52.2904828,10.3647376 C52.696002,10.1224752 53.1781121,10.0013459 53.7368276,10.0013459 Z M53.6422069,16.2732167 C54.345107,16.2732167 54.8948026,16.0264717 55.2913103,15.5329744 C55.6878181,15.0394771 55.886069,14.3530775 55.886069,13.473755 C55.886069,12.6034052 55.6878181,11.9259782 55.2913103,11.4414536 C54.8948026,10.9569289 54.3406013,10.7146703 53.6286897,10.7146703 C52.916778,10.7146703 52.3670824,10.9569289 51.9795862,11.4414536 C51.59209,11.9259782 51.3983448,12.6123778 51.3983448,13.5006729 C51.3983448,14.3889681 51.59209,15.0731246 51.9795862,15.5531629 C52.3670824,16.0332011 52.9212838,16.2732167 53.6422069,16.2732167 Z M61.2524138,17 C60.6306176,17 60.0831748,16.8564393 59.610069,16.5693136 C59.1369632,16.2821879 58.7720013,15.8739371 58.5151724,15.3445491 C58.2583435,14.8151611 58.129931,14.2005419 58.129931,13.5006729 C58.129931,12.800804 58.2583435,12.1861848 58.5151724,11.6567968 C58.7720013,11.1274087 59.1369632,10.719158 59.610069,10.4320323 C60.0831748,10.1449066 60.6306176,10.0013459 61.2524138,10.0013459 C61.8651985,10.0013459 62.4058827,10.1449066 62.8744828,10.4320323 C63.3430828,10.719158 63.7057918,11.1274087 63.9626207,11.6567968 C64.2194496,12.1861848 64.3478621,12.800804 64.3478621,13.5006729 C64.3478621,14.2005419 64.2194496,14.8151611 63.9626207,15.3445491 C63.7057918,15.8739371 63.3430828,16.2821879 62.8744828,16.5693136 C62.4058827,16.8564393 61.8651985,17 61.2524138,17 Z M61.2388966,16.2732167 C61.9598197,16.2732167 62.5162739,16.0332011 62.9082759,15.5531629 C63.3002778,15.0731246 63.4962759,14.3889681 63.4962759,13.5006729 C63.4962759,12.6213505 63.298025,11.937194 62.9015172,11.448183 C62.5050095,10.9591721 61.9553139,10.7146703 61.2524138,10.7146703 C60.5405022,10.7146703 59.9863008,10.9591721 59.5897931,11.448183 C59.1932854,11.937194 58.9950345,12.6213505 58.9950345,13.5006729 C58.9950345,14.3979408 59.1887797,15.0843404 59.5762759,15.5598923 C59.9637721,16.0354443 60.5179734,16.2732167 61.2388966,16.2732167 Z M71.6066207,10.1628533 L71.6066207,16.9057873 L70.8091034,16.9057873 L70.8091034,15.6810229 C70.5928265,16.1117114 70.2864388,16.4392093 69.889931,16.6635262 C69.4934233,16.8878432 69.0383474,17 68.5246897,17 C67.7316742,17 67.1324158,16.7801727 66.7268966,16.3405114 C66.3213773,15.9008502 66.1186207,15.2503408 66.1186207,14.3889637 L66.1186207,10.1628533 L66.9296552,10.1628533 L66.9296552,14.3351279 C66.9296552,14.9991061 67.0648262,15.4881097 67.3351724,15.8021534 C67.6055186,16.1161972 68.0245489,16.2732167 68.5922759,16.2732167 C69.2591298,16.2732167 69.7908026,16.064605 70.1873103,15.6473755 C70.5838181,15.230146 70.782069,14.6760914 70.782069,13.9851952 L70.782069,10.1628533 L71.6066207,10.1628533 Z M74.9994483,10.8223419 L74.9994483,14.833109 C74.9994483,15.3714697 75.1030794,15.7438303 75.3103448,15.9502019 C75.5176102,16.1565735 75.823998,16.2597577 76.2295172,16.2597577 C76.4818403,16.2597577 76.7251483,16.2193813 76.9594483,16.1386272 L76.9594483,16.8788694 C76.671079,16.9506509 76.3782084,16.986541 76.0808276,16.986541 C75.486066,16.986541 75.0197258,16.820549 74.6817931,16.4885599 C74.3438604,16.1565708 74.1748966,15.6585946 74.1748966,14.9946164 L74.1748966,10.8223419 L72.8366897,10.8223419 L72.8366897,10.1628533 L74.1748966,10.1628533 L74.1748966,8.37281292 L74.9994483,8.06325707 L74.9994483,10.1628533 L77,10.1628533 L77,10.8223419 L74.9994483,10.8223419 Z" id="allabout" fill="#252525"></path>
                    <path d="M87.073,17 L86.15,14.829 L81.626,14.829 L80.69,17 L79,17 L83.186,7.744 L84.551,7.744 L88.75,17 L87.073,17 Z M82.185,13.529 L85.591,13.529 L83.888,9.564 L82.185,13.529 Z M93.269125,10.266 C94.8377995,10.266 95.622125,11.1673243 95.622125,12.97 L95.622125,17 L93.997125,17 L93.997125,13.048 C93.997125,12.5279974 93.8974593,12.1488345 93.698125,11.9105 C93.4987907,11.6721655 93.1911271,11.553 92.775125,11.553 C92.2811225,11.553 91.8824598,11.7111651 91.579125,12.0275 C91.2757901,12.3438349 91.124125,12.7619974 91.124125,13.282 L91.124125,17 L89.512125,17 L89.512125,12.294 C89.512125,11.6006632 89.4774587,10.9810027 89.408125,10.435 L90.929125,10.435 L91.046125,11.514 C91.2714594,11.1153313 91.5769564,10.8076678 91.962625,10.591 C92.3482936,10.3743322 92.7837892,10.266 93.269125,10.266 Z M99.63425,17.104 C98.4469107,17.104 97.5022535,16.8266694 96.80025,16.272 L97.25525,15.128 C97.9572535,15.6480026 98.7589121,15.908 99.66025,15.908 C100.050252,15.908 100.351416,15.8430007 100.56375,15.713 C100.776084,15.5829994 100.88225,15.4010012 100.88225,15.167 C100.88225,14.9676657 100.808584,14.8095006 100.66125,14.6925 C100.513916,14.5754994 100.262585,14.4736671 99.90725,14.387 L98.81525,14.14 C97.619244,13.8799987 97.02125,13.2690048 97.02125,12.307 C97.02125,11.9083313 97.1339155,11.5551682 97.35925,11.2475 C97.5845844,10.9398318 97.9009146,10.6993342 98.30825,10.526 C98.7155853,10.3526658 99.187914,10.266 99.72525,10.266 C100.193252,10.266 100.643914,10.3374993 101.07725,10.4805 C101.510585,10.6235007 101.891915,10.829332 102.22125,11.098 L101.74025,12.203 C101.08158,11.7176642 100.405587,11.475 99.71225,11.475 C99.3395814,11.475 99.049251,11.5443326 98.84125,11.683 C98.6332489,11.8216674 98.52925,12.0123321 98.52925,12.255 C98.52925,12.4456676 98.5920827,12.5973328 98.71775,12.71 C98.8434173,12.8226672 99.0579151,12.9179996 99.36125,12.996 L100.47925,13.243 C101.129253,13.3903341 101.603748,13.6178318 101.90275,13.9255 C102.201751,14.2331682 102.35125,14.6339975 102.35125,15.128 C102.35125,15.7346697 102.108586,16.2156649 101.62325,16.571 C101.137914,16.9263351 100.474921,17.104 99.63425,17.104 Z M112.395375,10.435 L113.981375,10.435 L111.407375,17 L109.990375,17 L108.365375,12.697 L106.779375,17 L105.349375,17 L102.775375,10.435 L104.439375,10.435 L106.129375,15.063 L107.832375,10.435 L109.002375,10.435 L110.705375,15.102 L112.395375,10.435 Z M120.5155,13.802 L115.9915,13.802 C116.026167,14.5040035 116.201665,15.0218317 116.518,15.3555 C116.834335,15.6891683 117.304497,15.856 117.9285,15.856 C118.647837,15.856 119.315164,15.6220023 119.9305,15.154 L120.3985,16.272 C120.086498,16.5233346 119.703002,16.7248326 119.248,16.8765 C118.792998,17.0281674 118.331502,17.104 117.8635,17.104 C116.788828,17.104 115.943836,16.8006697 115.3285,16.194 C114.713164,15.5873303 114.4055,14.7553386 114.4055,13.698 C114.4055,13.0306633 114.539832,12.4370026 114.8085,11.917 C115.077168,11.3969974 115.454164,10.9918348 115.9395,10.7015 C116.424836,10.4111652 116.975164,10.266 117.5905,10.266 C118.491838,10.266 119.204664,10.5584971 119.729,11.1435 C120.253336,11.7285029 120.5155,12.5323282 120.5155,13.555 L120.5155,13.802 Z M117.6295,11.436 C117.196164,11.436 116.843001,11.5638321 116.57,11.8195 C116.296999,12.0751679 116.1215,12.4456642 116.0435,12.931 L119.0985,12.931 C119.0465,12.4369975 118.897001,12.0643346 118.65,11.813 C118.402999,11.5616654 118.062835,11.436 117.6295,11.436 Z M125.307625,10.279 C125.55896,10.279 125.775624,10.3136663 125.957625,10.383 L125.944625,11.865 C125.66729,11.7523328 125.381293,11.696 125.086625,11.696 C124.531956,11.696 124.10946,11.8563317 123.819125,12.177 C123.52879,12.4976683 123.383625,12.9223307 123.383625,13.451 L123.383625,17 L121.771625,17 L121.771625,12.294 C121.771625,11.6006632 121.736959,10.9810027 121.667625,10.435 L123.188625,10.435 L123.318625,11.592 C123.483292,11.1673312 123.74329,10.8423345 124.098625,10.617 C124.45396,10.3916655 124.856956,10.279 125.307625,10.279 Z M129.08575,17.104 C127.898411,17.104 126.953753,16.8266694 126.25175,16.272 L126.70675,15.128 C127.408753,15.6480026 128.210412,15.908 129.11175,15.908 C129.501752,15.908 129.802916,15.8430007 130.01525,15.713 C130.227584,15.5829994 130.33375,15.4010012 130.33375,15.167 C130.33375,14.9676657 130.260084,14.8095006 130.11275,14.6925 C129.965416,14.5754994 129.714085,14.4736671 129.35875,14.387 L128.26675,14.14 C127.070744,13.8799987 126.47275,13.2690048 126.47275,12.307 C126.47275,11.9083313 126.585415,11.5551682 126.81075,11.2475 C127.036084,10.9398318 127.352415,10.6993342 127.75975,10.526 C128.167085,10.3526658 128.639414,10.266 129.17675,10.266 C129.644752,10.266 130.095414,10.3374993 130.52875,10.4805 C130.962085,10.6235007 131.343415,10.829332 131.67275,11.098 L131.19175,12.203 C130.53308,11.7176642 129.857087,11.475 129.16375,11.475 C128.791081,11.475 128.500751,11.5443326 128.29275,11.683 C128.084749,11.8216674 127.98075,12.0123321 127.98075,12.255 C127.98075,12.4456676 128.043583,12.5973328 128.16925,12.71 C128.294917,12.8226672 128.509415,12.9179996 128.81275,12.996 L129.93075,13.243 C130.580753,13.3903341 131.055248,13.6178318 131.35425,13.9255 C131.653251,14.2331682 131.80275,14.6339975 131.80275,15.128 C131.80275,15.7346697 131.560086,16.2156649 131.07475,16.571 C130.589414,16.9263351 129.926421,17.104 129.08575,17.104 Z" id="Answers" fill="#FA6A49"></path>
                    <path d="M18,4.48669202 L17,4.48669202 L17,12.3346008 C17,12.8741445 16.55,13.3155894 16,13.3155894 L4,13.3155894 L4,14.2965779 C4,15.3756654 4.9,16.2585551 6,16.2585551 L16,16.2585551 L20,20.1825095 L20,6.4486692 C20,5.36958175 19.1,4.48669202 18,4.48669202 Z M15,9.39163498 L15,2.52471483 C15,1.44562738 14.1,0.562737643 13,0.562737643 L2,0.562737643 C0.9,0.562737643 0,1.44562738 0,2.52471483 L0,15.2775665 L4,11.3536122 L13,11.3536122 C14.1,11.3536122 15,10.4707224 15,9.39163498 Z" id="Shape" fill="#FA6A49" fill-rule="nonzero"></path>
                </g>
            </g>
        </g>
    </g>
</svg>