<?xml version="1.0" encoding="UTF-8"?>
<svg width="127px" height="21px" viewBox="0 0 127 21" version="1.1" xmlns="http://www.w3.org/2000/svg" xmlns:xlink="http://www.w3.org/1999/xlink">
    <!-- Generator: Sketch 51.2 (57519) - http://www.bohemiancoding.com/sketch -->
    <title>logo</title>
    <desc>Created with Sketch.</desc>
    <defs></defs>
    <g id="Symbols" stroke="none" stroke-width="1" fill="none" fill-rule="evenodd">
        <g id="top-nav" transform="translate(0.000000, -2.000000)">
            <g transform="translate(0.000000, 2.000000)" id="logo">
                <g>
                    <path d="M34.1577397,8.49394347 L34.1577397,15.8963661 L33.5712883,15.8963661 L33.5712883,14.4158816 C33.3664947,14.9291188 33.0523275,15.3214432 32.6287771,15.5928668 C32.2052268,15.8642903 31.700232,16 31.1137777,16 C30.4900882,16 29.9432044,15.8445507 29.4731101,15.5336474 C29.0030157,15.2227441 28.639978,14.7786032 28.383986,14.2012113 C28.1279941,13.6238195 28,12.9502057 28,12.1803499 C28,11.4104941 28.1303212,10.734413 28.3909676,10.1520861 C28.651614,9.56975931 29.0169789,9.11821605 29.4870732,8.7974428 C29.9571675,8.47666955 30.4993969,8.31628533 31.1137777,8.31628533 C31.700232,8.31628533 32.2052268,8.4495276 32.6287771,8.71601615 C33.0523275,8.9825047 33.3664947,9.37236172 33.5712883,9.88559892 L33.5712883,8.49394347 L34.1577397,8.49394347 Z M31.1277408,15.3930013 C31.9003711,15.3930013 32.5007796,15.1092447 32.9289844,14.5417227 C33.3571892,13.9742008 33.5712883,13.1772146 33.5712883,12.1507402 C33.5712883,11.1143959 33.3571892,10.3174097 32.9289844,9.75975774 C32.5007796,9.20210578 31.8957168,8.92328398 31.1137777,8.92328398 C30.3318386,8.92328398 29.7221214,9.20950813 29.2846078,9.78196501 C28.8470943,10.3544219 28.6283408,11.1538755 28.6283408,12.1803499 C28.6283408,13.1969544 28.8494214,13.9865382 29.2915894,14.5491252 C29.7337573,15.1117121 30.3458017,15.3930013 31.1277408,15.3930013 Z M36.3970765,15.8963661 L36.3970765,5 L36.9695647,5 L36.9695647,15.8963661 L36.3970765,15.8963661 Z M39.2228646,15.8963661 L39.2228646,5 L39.7953529,5 L39.7953529,15.8963661 L39.2228646,15.8963661 Z M47.7316461,8.49394347 L47.7316461,15.8963661 L47.1451947,15.8963661 L47.1451947,14.4158816 C46.9404011,14.9291188 46.6262339,15.3214432 46.2026835,15.5928668 C45.7791332,15.8642903 45.2741384,16 44.6876841,16 C44.0639946,16 43.5171108,15.8445507 43.0470165,15.5336474 C42.5769221,15.2227441 42.2138844,14.7786032 41.9578924,14.2012113 C41.7019005,13.6238195 41.5739064,12.9502057 41.5739064,12.1803499 C41.5739064,11.4104941 41.7042276,10.734413 41.964874,10.1520861 C42.2255204,9.56975931 42.5908853,9.11821605 43.0609796,8.7974428 C43.5310739,8.47666955 44.0733034,8.31628533 44.6876841,8.31628533 C45.2741384,8.31628533 45.7791332,8.4495276 46.2026835,8.71601615 C46.6262339,8.9825047 46.9404011,9.37236172 47.1451947,9.88559892 L47.1451947,8.49394347 L47.7316461,8.49394347 Z M44.7016472,15.3930013 C45.4742775,15.3930013 46.0746861,15.1092447 46.5028908,14.5417227 C46.9310956,13.9742008 47.1451947,13.1772146 47.1451947,12.1507402 C47.1451947,11.1143959 46.9310956,10.3174097 46.5028908,9.75975774 C46.0746861,9.20210578 45.4696232,8.92328398 44.6876841,8.92328398 C43.905745,8.92328398 43.2960278,9.20950813 42.8585142,9.78196501 C42.4210007,10.3544219 42.2022472,11.1538755 42.2022472,12.1803499 C42.2022472,13.1969544 42.4233278,13.9865382 42.8654958,14.5491252 C43.3076638,15.1117121 43.9197081,15.3930013 44.7016472,15.3930013 Z M53.0149449,8.31628533 C53.6293256,8.31628533 54.1738822,8.47173465 54.648631,8.78263795 C55.1233797,9.09354126 55.4887446,9.53768217 55.7447366,10.115074 C56.0007285,10.6924659 56.1287226,11.3611447 56.1287226,12.1211306 C56.1287226,12.8909864 55.9984014,13.569535 55.737755,14.1567968 C55.4771086,14.7440586 55.1117437,15.1980693 54.6416494,15.5188425 C54.171555,15.8396158 53.6293256,16 53.0149449,16 C52.4191818,16 51.914187,15.8618228 51.4999455,15.5854643 C51.0857039,15.3091058 50.7715367,14.909379 50.5574343,14.3862719 L50.5574343,15.8963661 L49.9709829,15.8963661 L49.9709829,5 L50.5434711,5 L50.5434711,9.95962315 C50.7482647,9.42664606 51.062432,9.01951688 51.4859823,8.73822342 C51.9095327,8.45692995 52.4191818,8.31628533 53.0149449,8.31628533 Z M53.028908,15.3930013 C53.8015384,15.3930013 54.404274,15.1043098 54.8371332,14.5269179 C55.2699923,13.949526 55.4864187,13.147605 55.4864187,12.1211306 C55.4864187,11.1045261 55.2699923,10.3174097 54.8371332,9.75975774 C54.404274,9.20210578 53.796884,8.92328398 53.0149449,8.92328398 C52.223697,8.92328398 51.616307,9.20210578 51.1927566,9.75975774 C50.7692063,10.3174097 50.5574343,11.1143959 50.5574343,12.1507402 C50.5574343,13.1870846 50.7692063,13.9865382 51.1927566,14.5491252 C51.616307,15.1117121 52.2283513,15.3930013 53.028908,15.3930013 Z M60.5323443,16 C59.9179635,16 59.373407,15.8420832 58.8986582,15.526245 C58.4239095,15.2104067 58.0585446,14.7613309 57.8025526,14.179004 C57.5465607,13.5966772 57.4185666,12.920596 57.4185666,12.1507402 C57.4185666,11.3808844 57.5465607,10.7072707 57.8025526,10.1298789 C58.0585446,9.55248702 58.4239095,9.10587865 58.8986582,8.79004038 C59.373407,8.4742021 59.9179635,8.31628533 60.5323443,8.31628533 C61.146725,8.31628533 61.6889544,8.4742021 62.1590488,8.79004038 C62.6291431,9.10587865 62.9921808,9.55248702 63.2481728,10.1298789 C63.5041648,10.7072707 63.6321588,11.3808844 63.6321588,12.1507402 C63.6321588,12.920596 63.5041648,13.5966772 63.2481728,14.179004 C62.9921808,14.7613309 62.6291431,15.2104067 62.1590488,15.526245 C61.6889544,15.8420832 61.146725,16 60.5323443,16 Z M60.5183811,15.3930013 C61.3096291,15.3930013 61.9216734,15.1117121 62.3545326,14.5491252 C62.7873917,13.9865382 63.003818,13.1870846 63.003818,12.1507402 C63.003818,11.1440057 62.7850645,10.3544219 62.347551,9.78196501 C61.9100374,9.20950813 61.3049746,8.92328398 60.5323443,8.92328398 C59.759714,8.92328398 59.1523239,9.20704068 58.710156,9.77456258 C58.267988,10.3420845 58.0469074,11.1341358 58.0469074,12.1507402 C58.0469074,13.1969545 58.2610065,13.9988756 58.6892113,14.5565276 C59.1174161,15.1141795 59.7271332,15.3930013 60.5183811,15.3930013 Z M70.7725537,8.49394347 L70.7725537,15.8963661 L70.2140286,15.8963661 L70.2140286,14.4899058 C69.9906174,14.9735331 69.6671415,15.346118 69.2435911,15.6076716 C68.8200408,15.8692252 68.342972,16 67.8123705,16 C67.0118137,16 66.4020966,15.7606574 65.9832006,15.281965 C65.5643047,14.8032726 65.3548598,14.1000495 65.3548598,13.1722746 L65.3548598,8.49394347 L65.9273481,8.49394347 L65.9273481,13.1130552 C65.9273481,13.8927809 66.0786138,14.4676967 66.3811498,14.8378197 C66.6836857,15.2079426 67.1467915,15.3930013 67.7704811,15.3930013 C68.5058762,15.3930013 69.0946489,15.1487238 69.5368168,14.6601615 C69.9789848,14.1715992 70.2000655,13.5226599 70.2000655,12.7133244 L70.2000655,8.49394347 L70.7725537,8.49394347 Z M73.8776045,9.0269179 L73.8776045,13.7496635 C73.8776045,14.3813401 73.9869812,14.8131437 74.205738,15.0450875 C74.4244947,15.2770312 74.7479707,15.3930013 75.1761754,15.3930013 C75.4554394,15.3930013 75.7160818,15.3485873 75.9581106,15.2597577 L75.9581106,15.8667564 C75.6788466,15.945716 75.3995869,15.9851952 75.1203229,15.9851952 C74.561795,15.9851952 74.1173065,15.819876 73.7868441,15.4892328 C73.4563818,15.1585896 73.291153,14.6478276 73.291153,13.9569314 L73.291153,9.0269179 L71.8948402,9.0269179 L71.8948402,8.49394347 L73.291153,8.49394347 L73.291153,6.48048452 L73.8776045,6.21399731 L73.8776045,8.49394347 L76,8.49394347 L76,9.0269179 L73.8776045,9.0269179 Z" id="allabout" fill="#2E2E2E"></path>
                    <g id="Group">
                        <rect id="Rectangle-6" fill="#FA6A49" x="6.35294118" y="0" width="5.29411765" height="1.05" rx="0.525"></rect>
                        <ellipse id="Oval" stroke="#FA6A49" stroke-width="1.5" cx="9" cy="12.075" rx="8.25" ry="8.175"></ellipse>
                        <ellipse id="Oval-Copy" fill="#FFD3C9" cx="9" cy="12.075" rx="5.82352941" ry="5.775"></ellipse>
                        <rect id="Rectangle-5" fill="#FA6A49" x="8.47058824" y="8.4" width="1" height="5.25" rx="0.5"></rect>
                        <rect id="Rectangle-7" fill="#FA6A49" transform="translate(16.411765, 5.775000) rotate(-315.000000) translate(-16.411765, -5.775000) " x="15.8823529" y="4.2" width="1.05882353" height="3.15" rx="0.529411765"></rect>
                        <rect id="Rectangle-5-Copy" fill="#FA6A49" x="8.47058824" y="0" width="1.05882353" height="4.2" rx="0.529411765"></rect>
                    </g>
                    <path d="M86.1985112,5.32614555 L87.6158809,5.32614555 L87.6158809,15.8814016 L86.0317618,15.8814016 L86.0317618,9.32884097 L83.4054591,15.8814016 L82.2243176,15.8814016 L79.5841191,9.40296496 L79.5841191,15.8814016 L78,15.8814016 L78,5.32614555 L79.4173697,5.32614555 L82.8218362,13.583558 L86.1985112,5.32614555 Z M89.4414392,15.8814016 L89.4414392,8.39487871 L91.1645161,8.39487871 L91.1645161,15.8814016 L89.4414392,15.8814016 Z M89.330273,5 L91.2617866,5 L91.2617866,6.82345013 L89.330273,6.82345013 L89.330273,5 Z M96.8669975,8.20215633 C98.5437636,8.20215633 99.382134,9.22999871 99.382134,11.2857143 L99.382134,15.8814016 L97.6451613,15.8814016 L97.6451613,11.3746631 C97.6451613,10.7816682 97.538628,10.3492826 97.3255583,10.0774933 C97.1124886,9.80570394 96.7836251,9.66981132 96.3389578,9.66981132 C95.8109155,9.66981132 95.3847824,9.85017789 95.0605459,10.2109164 C94.7363094,10.571655 94.5741935,11.0485146 94.5741935,11.6415094 L94.5741935,15.8814016 L92.8511166,15.8814016 L92.8511166,10.5148248 C92.8511166,9.72416496 92.8140616,9.01752333 92.7399504,8.39487871 L94.3657568,8.39487871 L94.4908189,9.62533693 C94.7316803,9.17070752 95.0582279,8.81985748 95.4704715,8.57277628 C95.882715,8.32569508 96.3482191,8.20215633 96.8669975,8.20215633 Z M107.405211,8.39487871 L107.405211,15.8814016 L105.709926,15.8814016 L105.709926,14.7250674 C105.487592,15.1401638 105.191152,15.456423 104.820596,15.6738544 C104.45004,15.8912859 104.023906,16 103.542184,16 C101.828362,16 100.971464,14.9721576 100.971464,12.916442 L100.971464,8.39487871 L102.694541,8.39487871 L102.694541,12.9312668 C102.694541,13.4748455 102.798758,13.875111 103.007196,14.1320755 C103.215634,14.3890399 103.53755,14.5175202 103.972953,14.5175202 C104.482467,14.5175202 104.890073,14.3396244 105.195782,13.9838275 C105.50149,13.6280306 105.654342,13.1536418 105.654342,12.5606469 L105.654342,8.39487871 L107.405211,8.39487871 Z M111.287345,9.7884097 L111.287345,13.138814 C111.287345,14.0184231 111.671791,14.458221 112.440695,14.458221 C112.653765,14.458221 112.885359,14.4186886 113.135484,14.3396226 L113.135484,15.8072776 C112.829775,15.9258766 112.459225,15.9851752 112.023821,15.9851752 C111.227126,15.9851752 110.615718,15.7479808 110.189578,15.2735849 C109.763439,14.799189 109.550372,14.1172551 109.550372,13.2277628 L109.550372,9.7884097 L108.202481,9.7884097 L108.202481,8.39487871 L109.550372,8.39487871 L109.550372,6.57142857 L111.287345,5.94878706 L111.287345,8.39487871 L113.14938,8.39487871 L113.14938,9.7884097 L111.287345,9.7884097 Z M120.269231,12.2345013 L115.433499,12.2345013 C115.470554,13.0350444 115.658146,13.6255596 115.996278,14.0060647 C116.33441,14.3865697 116.836969,14.5768194 117.50397,14.5768194 C118.272874,14.5768194 118.986184,14.3099757 119.643921,13.7762803 L120.144169,15.0512129 C119.810668,15.3378271 119.400747,15.5676092 118.914392,15.740566 C118.428037,15.9135229 117.934742,16 117.434491,16 C116.285768,16 115.382551,15.6540915 114.724814,14.9622642 C114.067077,14.2704368 113.738213,13.3216592 113.738213,12.115903 C113.738213,11.3548929 113.881802,10.6779005 114.168983,10.0849057 C114.456164,9.49191078 114.859137,9.02987587 115.377916,8.69878706 C115.896694,8.36769825 116.484943,8.20215633 117.14268,8.20215633 C118.106126,8.20215633 118.86807,8.53571095 119.428536,9.20283019 C119.989002,9.86994943 120.269231,10.7866069 120.269231,11.9528302 L120.269231,12.2345013 Z M117.184367,9.53638814 C116.721172,9.53638814 116.343674,9.68216386 116.051861,9.97371968 C115.760048,10.2652755 115.572457,10.687778 115.489082,11.2412399 L118.754591,11.2412399 C118.699007,10.6778948 118.539207,10.2529215 118.275186,9.96630728 C118.011165,9.67969309 117.647562,9.53638814 117.184367,9.53638814 Z M124.095782,16 C122.826627,16 121.816877,15.6837408 121.066501,15.0512129 L121.552854,13.7466307 C122.30323,14.3396256 123.160128,14.6361186 124.123573,14.6361186 C124.540449,14.6361186 124.862364,14.5619954 125.08933,14.4137466 C125.316296,14.2654979 125.429777,14.0579528 125.429777,13.7911051 C125.429777,13.5637904 125.351035,13.3834238 125.193548,13.25 C125.036062,13.1165762 124.767413,13.0004497 124.387593,12.9016173 L123.220347,12.6199461 C121.941929,12.3234487 121.30273,11.6266901 121.30273,10.5296496 C121.30273,10.0750202 121.423158,9.67228387 121.66402,9.32142857 C121.904881,8.97057327 122.243009,8.69631725 122.678412,8.49865229 C123.113815,8.30098733 123.61869,8.20215633 124.193052,8.20215633 C124.693303,8.20215633 125.175018,8.28369191 125.638213,8.4467655 C126.101408,8.60983909 126.509014,8.84456271 126.861042,9.1509434 L126.346898,10.4110512 C125.642842,9.85758933 124.920268,9.58086253 124.179156,9.58086253 C123.780809,9.58086253 123.470473,9.65992733 123.248139,9.8180593 C123.025805,9.97619127 122.91464,10.1936195 122.91464,10.4703504 C122.91464,10.6877819 122.981802,10.8607361 123.116129,10.9892183 C123.250456,11.1177006 123.479734,11.2264146 123.80397,11.3153639 L124.999007,11.597035 C125.6938,11.7650503 126.200991,12.0244816 126.520596,12.3753369 C126.8402,12.7261922 127,13.1832856 127,13.7466307 C127,14.4384581 126.740615,14.9869701 126.221836,15.3921833 C125.703058,15.7973965 124.99438,16 124.095782,16 Z" id="Minutes" fill="#FA6A49"></path>
                </g>
            </g>
        </g>
    </g>
</svg>