<?xml version="1.0" encoding="UTF-8"?>
<svg width="327px" height="26px" viewBox="0 0 327 26" version="1.1" xmlns="http://www.w3.org/2000/svg" xmlns:xlink="http://www.w3.org/1999/xlink">
    <!-- Generator: Sketch 52.2 (67145) - http://www.bohemiancoding.com/sketch -->
    <title>aar-logo-on-dark</title>
    <desc>Created with Sketch.</desc>
    <g id="Page-3" stroke="none" stroke-width="1" fill="none" fill-rule="evenodd">
        <g id="logo-option-1-copy-10" transform="translate(-32.000000, -48.000000)">
            <g id="aar-logo-on-dark" transform="translate(32.000000, 38.000000)">
                <path d="M79.84,19 L79.84,35 L78.496,35 L78.496,31.8 C78.0266643,32.9093389 77.3066715,33.7573304 76.336,34.344 C75.3653285,34.9306696 74.2080067,35.224 72.864,35.224 C71.4346595,35.224 70.1813387,34.8880034 69.104,34.216 C68.0266613,33.5439966 67.1946696,32.5840062 66.608,31.336 C66.0213304,30.0879938 65.728,28.6320083 65.728,26.968 C65.728,25.3039917 66.0266637,23.842673 66.624,22.584 C67.2213363,21.325327 68.0586613,20.3493368 69.136,19.656 C70.2133387,18.9626632 71.455993,18.616 72.864,18.616 C74.2080067,18.616 75.3653285,18.9039971 76.336,19.48 C77.3066715,20.0560029 78.0266643,20.8986611 78.496,22.008 L78.496,19 L79.84,19 Z M72.896,33.912 C74.6666755,33.912 76.0426618,33.2986728 77.024,32.072 C78.0053382,30.8453272 78.496,29.1226778 78.496,26.904 C78.496,24.6639888 78.0053382,22.9413394 77.024,21.736 C76.0426618,20.5306606 74.656009,19.928 72.864,19.928 C71.071991,19.928 69.6746717,20.5466605 68.672,21.784 C67.6693283,23.0213395 67.168,24.7493222 67.168,26.968 C67.168,29.1653443 67.6746616,30.8719939 68.688,32.088 C69.7013384,33.3040061 71.103991,33.912 72.896,33.912 Z M84.772,35 L84.772,11.448 L86.084,11.448 L86.084,35 L84.772,35 Z M91.048,35 L91.048,11.448 L92.36,11.448 L92.36,35 L91.048,35 Z M110.348,19 L110.348,35 L109.004,35 L109.004,31.8 C108.534664,32.9093389 107.814672,33.7573304 106.844,34.344 C105.873329,34.9306696 104.716007,35.224 103.372,35.224 C101.94266,35.224 100.689339,34.8880034 99.612,34.216 C98.5346613,33.5439966 97.7026696,32.5840062 97.116,31.336 C96.5293304,30.0879938 96.236,28.6320083 96.236,26.968 C96.236,25.3039917 96.5346637,23.842673 97.132,22.584 C97.7293364,21.325327 98.5666613,20.3493368 99.644,19.656 C100.721339,18.9626632 101.963993,18.616 103.372,18.616 C104.716007,18.616 105.873329,18.9039971 106.844,19.48 C107.814672,20.0560029 108.534664,20.8986611 109.004,22.008 L109.004,19 L110.348,19 Z M103.404,33.912 C105.174676,33.912 106.550662,33.2986728 107.532,32.072 C108.513338,30.8453272 109.004,29.1226778 109.004,26.904 C109.004,24.6639888 108.513338,22.9413394 107.532,21.736 C106.550662,20.5306606 105.164009,19.928 103.372,19.928 C101.579991,19.928 100.182672,20.5466605 99.18,21.784 C98.1773284,23.0213395 97.676,24.7493222 97.676,26.968 C97.676,29.1653443 98.1826616,30.8719939 99.196,32.088 C100.209338,33.3040061 101.611991,33.912 103.404,33.912 Z M122.256,18.616 C123.664007,18.616 124.911995,18.9519966 126,19.624 C127.088005,20.2960034 127.92533,21.2559938 128.512,22.504 C129.09867,23.7520062 129.392,25.1973251 129.392,26.84 C129.392,28.5040083 129.093336,29.9706603 128.496,31.24 C127.898664,32.5093397 127.061339,33.4906632 125.984,34.184 C124.906661,34.8773368 123.664007,35.224 122.256,35.224 C120.89066,35.224 119.733338,34.9253363 118.784,34.328 C117.834662,33.7306637 117.114669,32.8666723 116.624,31.736 L116.624,35 L115.28,35 L115.28,11.448 L116.592,11.448 L116.592,22.168 C117.061336,21.0159942 117.781329,20.136003 118.752,19.528 C119.722672,18.919997 120.89066,18.616 122.256,18.616 Z M122.288,33.912 C124.058676,33.912 125.439995,33.2880062 126.432,32.04 C127.424005,30.7919938 127.92,29.0586778 127.92,26.84 C127.92,24.6426557 127.424005,22.9413394 126.432,21.736 C125.439995,20.5306606 124.048009,19.928 122.256,19.928 C120.442658,19.928 119.050672,20.5306606 118.08,21.736 C117.109329,22.9413394 116.624,24.6639888 116.624,26.904 C116.624,29.1440112 117.109329,30.8719939 118.08,32.088 C119.050672,33.3040061 120.453324,33.912 122.288,33.912 Z M139.284,35.224 C137.875993,35.224 136.628005,34.8826701 135.54,34.2 C134.451995,33.5173299 133.61467,32.546673 133.028,31.288 C132.44133,30.029327 132.148,28.5680083 132.148,26.904 C132.148,25.2399917 132.44133,23.7840062 133.028,22.536 C133.61467,21.2879938 134.451995,20.3226701 135.54,19.64 C136.628005,18.9573299 137.875993,18.616 139.284,18.616 C140.692007,18.616 141.934661,18.9573299 143.012,19.64 C144.089339,20.3226701 144.92133,21.2879938 145.508,22.536 C146.09467,23.7840062 146.388,25.2399917 146.388,26.904 C146.388,28.5680083 146.09467,30.029327 145.508,31.288 C144.92133,32.546673 144.089339,33.5173299 143.012,34.2 C141.934661,34.8826701 140.692007,35.224 139.284,35.224 Z M139.252,33.912 C141.065342,33.912 142.467995,33.3040061 143.46,32.088 C144.452005,30.8719939 144.948,29.1440112 144.948,26.904 C144.948,24.7279891 144.446672,23.0213395 143.444,21.784 C142.441328,20.5466605 141.054676,19.928 139.284,19.928 C137.513325,19.928 136.121338,20.5413272 135.108,21.768 C134.094662,22.9946728 133.588,24.7066557 133.588,26.904 C133.588,29.1653446 134.078662,30.8986606 135.06,32.104 C136.041338,33.3093394 137.438658,33.912 139.252,33.912 Z M162.552,19 L162.552,35 L161.272,35 L161.272,31.96 C160.759998,33.0053386 160.018672,33.8106638 159.048,34.376 C158.077329,34.9413362 156.984006,35.224 155.768,35.224 C153.933324,35.224 152.536005,34.7066718 151.576,33.672 C150.615995,32.6373282 150.136,31.1173434 150.136,29.112 L150.136,19 L151.448,19 L151.448,28.984 C151.448,30.6693418 151.794663,31.911996 152.488,32.712 C153.181337,33.512004 154.24266,33.912 155.672,33.912 C157.357342,33.912 158.706662,33.3840053 159.72,32.328 C160.733338,31.2719947 161.24,29.8693421 161.24,28.12 L161.24,19 L162.552,19 Z M169.468,20.152 L169.468,30.36 C169.468,31.7253402 169.718664,32.6586642 170.22,33.16 C170.721336,33.6613358 171.462662,33.912 172.444,33.912 C173.084003,33.912 173.681331,33.816001 174.236,33.624 L174.236,34.936 C173.595997,35.1066675 172.956003,35.192 172.316,35.192 C171.035994,35.192 170.017337,34.8346702 169.26,34.12 C168.502663,33.4053298 168.124,32.3013408 168.124,30.808 L168.124,20.152 L164.924,20.152 L164.924,19 L168.124,19 L168.124,14.648 L169.468,14.072 L169.468,19 L174.332,19 L174.332,20.152 L169.468,20.152 Z" id="allabout" fill="#FFFFFF"></path>
                <path d="M198.216,35 L193.864,35 L190.952,27.416 C190.695999,26.7119965 190.301336,26.2213347 189.768,25.944 C189.234664,25.6666653 188.541338,25.528 187.688,25.528 L183.56,25.528 L183.56,35 L179.464,35 L179.464,12.216 L189.224,12.216 C191.805346,12.216 193.767993,12.7813277 195.112,13.912 C196.456007,15.0426723 197.128,16.6639894 197.128,18.776 C197.128,20.2906742 196.728004,21.5759947 195.928,22.632 C195.127996,23.6880053 193.992007,24.4399978 192.52,24.888 C193.864007,25.1653347 194.834664,26.103992 195.432,27.704 L198.216,35 Z M188.648,22.328 C190.205341,22.328 191.35733,22.0400029 192.104,21.464 C192.85067,20.8879971 193.224,20.0133392 193.224,18.84 C193.224,17.6879942 192.856004,16.8293362 192.12,16.264 C191.383996,15.6986638 190.226675,15.416 188.648,15.416 L183.496,15.416 L183.496,22.328 L188.648,22.328 Z M215.084,27.128 L203.948,27.128 C204.033334,28.8560086 204.465329,30.1306626 205.244,30.952 C206.022671,31.7733374 207.179992,32.184 208.716,32.184 C210.486676,32.184 212.129326,31.6080058 213.644,30.456 L214.796,33.208 C214.027996,33.8266698 213.084006,34.3226648 211.964,34.696 C210.843994,35.0693352 209.708006,35.256 208.556,35.256 C205.910653,35.256 203.830674,34.5093408 202.316,33.016 C200.801326,31.5226592 200.044,29.4746797 200.044,26.872 C200.044,25.2293251 200.374663,23.7680064 201.036,22.488 C201.697337,21.2079936 202.625327,20.2106702 203.82,19.496 C205.014673,18.7813298 206.369326,18.424 207.884,18.424 C210.102678,18.424 211.857327,19.1439928 213.148,20.584 C214.438673,22.0240072 215.084,24.0026541 215.084,26.52 L215.084,27.128 Z M207.98,21.304 C206.913328,21.304 206.044003,21.6186635 205.372,22.248 C204.699997,22.8773365 204.268001,23.7893274 204.076,24.984 L211.596,24.984 C211.467999,23.7679939 211.100003,22.8506698 210.492,22.232 C209.883997,21.6133302 209.046672,21.304 207.98,21.304 Z M223.696,35.256 C220.773319,35.256 218.448009,34.5733402 216.72,33.208 L217.84,30.392 C219.568009,31.6720064 221.541322,32.312 223.76,32.312 C224.720005,32.312 225.461331,32.1520016 225.984,31.832 C226.506669,31.5119984 226.768,31.0640029 226.768,30.488 C226.768,29.9973309 226.586669,29.6080014 226.224,29.32 C225.861332,29.0319986 225.242671,28.7813344 224.368,28.568 L221.68,27.96 C218.735985,27.3199968 217.264,25.8160118 217.264,23.448 C217.264,22.4666618 217.541331,21.5973371 218.096,20.84 C218.650669,20.0826629 219.429328,19.4906688 220.432,19.064 C221.434672,18.6373312 222.597327,18.424 223.92,18.424 C225.072006,18.424 226.181328,18.5999982 227.248,18.952 C228.314672,19.3040018 229.253329,19.8106634 230.064,20.472 L228.88,23.192 C227.258659,21.9973274 225.594675,21.4 223.888,21.4 C222.970662,21.4 222.256003,21.570665 221.744,21.912 C221.231997,22.253335 220.976,22.7226637 220.976,23.32 C220.976,23.7893357 221.130665,24.1626653 221.44,24.44 C221.749335,24.7173347 222.27733,24.951999 223.024,25.144 L225.776,25.752 C227.376008,26.1146685 228.543996,26.6746629 229.28,27.432 C230.016004,28.1893371 230.384,29.1759939 230.384,30.392 C230.384,31.8853408 229.786673,33.069329 228.592,33.944 C227.397327,34.818671 225.765344,35.256 223.696,35.256 Z M240.436,35.256 C238.793325,35.256 237.348006,34.9146701 236.1,34.232 C234.851994,33.5493299 233.892003,32.5733397 233.22,31.304 C232.547997,30.0346603 232.212,28.5466752 232.212,26.84 C232.212,25.1333248 232.547997,23.6453397 233.22,22.376 C233.892003,21.1066603 234.851994,20.1306701 236.1,19.448 C237.348006,18.7653299 238.793325,18.424 240.436,18.424 C242.057341,18.424 243.486661,18.7653299 244.724,19.448 C245.96134,20.1306701 246.915997,21.1066603 247.588,22.376 C248.260003,23.6453397 248.596,25.1333248 248.596,26.84 C248.596,28.5466752 248.260003,30.0346603 247.588,31.304 C246.915997,32.5733397 245.96134,33.5493299 244.724,34.232 C243.486661,34.9146701 242.057341,35.256 240.436,35.256 Z M240.404,32.12 C241.76934,32.12 242.80933,31.6773378 243.524,30.792 C244.23867,29.9066622 244.596,28.5893421 244.596,26.84 C244.596,25.1119914 244.233337,23.7946712 243.508,22.888 C242.782663,21.9813288 241.758673,21.528 240.436,21.528 C239.091993,21.528 238.057337,21.9813288 237.332,22.888 C236.606663,23.7946712 236.244,25.1119914 236.244,26.84 C236.244,28.5893421 236.60133,29.9066622 237.316,30.792 C238.03067,31.6773378 239.059993,32.12 240.404,32.12 Z M266.072,18.84 L266.072,35 L262.168,35 L262.168,32.504 C261.655997,33.4000045 260.973338,34.0826643 260.12,34.552 C259.266662,35.0213357 258.285339,35.256 257.176,35.256 C253.229314,35.256 251.256,33.0373555 251.256,28.6 L251.256,18.84 L255.224,18.84 L255.224,28.632 C255.224,29.8053392 255.463998,30.6693306 255.944,31.224 C256.424002,31.7786694 257.165328,32.056 258.168,32.056 C259.341339,32.056 260.279997,31.6720038 260.984,30.904 C261.688004,30.1359962 262.04,29.1120064 262.04,27.832 L262.04,18.84 L266.072,18.84 Z M278.428,18.456 C279.04667,18.456 279.579998,18.5413325 280.028,18.712 L279.996,22.36 C279.31333,22.0826653 278.609337,21.944 277.884,21.944 C276.51866,21.944 275.47867,22.3386627 274.764,23.128 C274.04933,23.9173373 273.692,24.9626602 273.692,26.264 L273.692,35 L269.724,35 L269.724,23.416 C269.724,21.7093248 269.638668,20.1840067 269.468,18.84 L273.212,18.84 L273.532,21.688 C273.937335,20.6426614 274.577329,19.8426694 275.452,19.288 C276.326671,18.7333306 277.318661,18.456 278.428,18.456 Z M288.576,35.256 C286.890658,35.256 285.42934,34.9146701 284.192,34.232 C282.954661,33.5493299 282.005337,32.5840062 281.344,31.336 C280.682663,30.0879938 280.352,28.6213418 280.352,26.936 C280.352,25.2506582 280.698663,23.7680064 281.392,22.488 C282.085337,21.2079936 283.06666,20.2106702 284.336,19.496 C285.60534,18.7813298 287.071992,18.424 288.736,18.424 C289.888006,18.424 291.002661,18.6053315 292.08,18.968 C293.157339,19.3306685 294.015997,19.8319968 294.656,20.472 L293.536,23.288 C292.85333,22.7333306 292.128004,22.3120014 291.36,22.024 C290.591996,21.7359986 289.83467,21.592 289.088,21.592 C287.637326,21.592 286.506671,22.0453288 285.696,22.952 C284.885329,23.8586712 284.48,25.1653248 284.48,26.872 C284.48,28.5786752 284.879996,29.8799955 285.68,30.776 C286.480004,31.6720045 287.615993,32.12 289.088,32.12 C289.83467,32.12 290.591996,31.9706682 291.36,31.672 C292.128004,31.3733318 292.85333,30.9466694 293.536,30.392 L294.656,33.208 C293.97333,33.8480032 293.088006,34.3493315 292,34.712 C290.911995,35.0746685 289.770673,35.256 288.576,35.256 Z M310.788,27.128 L299.652,27.128 C299.737334,28.8560086 300.16933,30.1306626 300.948,30.952 C301.726671,31.7733374 302.883992,32.184 304.42,32.184 C306.190676,32.184 307.833326,31.6080058 309.348,30.456 L310.5,33.208 C309.731996,33.8266698 308.788006,34.3226648 307.668,34.696 C306.547994,35.0693352 305.412006,35.256 304.26,35.256 C301.614654,35.256 299.534674,34.5093408 298.02,33.016 C296.505326,31.5226592 295.748,29.4746797 295.748,26.872 C295.748,25.2293251 296.078663,23.7680064 296.74,22.488 C297.401337,21.2079936 298.329327,20.2106702 299.524,19.496 C300.718673,18.7813298 302.073326,18.424 303.588,18.424 C305.806678,18.424 307.561327,19.1439928 308.852,20.584 C310.142673,22.0240072 310.788,24.0026541 310.788,26.52 L310.788,27.128 Z M303.684,21.304 C302.617328,21.304 301.748003,21.6186635 301.076,22.248 C300.403997,22.8773365 299.972001,23.7893274 299.78,24.984 L307.3,24.984 C307.171999,23.7679939 306.804003,22.8506698 306.196,22.232 C305.587997,21.6133302 304.750672,21.304 303.684,21.304 Z M319.4,35.256 C316.477319,35.256 314.152009,34.5733402 312.424,33.208 L313.544,30.392 C315.272009,31.6720064 317.245322,32.312 319.464,32.312 C320.424005,32.312 321.165331,32.1520016 321.688,31.832 C322.210669,31.5119984 322.472,31.0640029 322.472,30.488 C322.472,29.9973309 322.290669,29.6080014 321.928,29.32 C321.565332,29.0319986 320.946671,28.7813344 320.072,28.568 L317.384,27.96 C314.439985,27.3199968 312.968,25.8160118 312.968,23.448 C312.968,22.4666618 313.245331,21.5973371 313.8,20.84 C314.35467,20.0826629 315.133328,19.4906688 316.136,19.064 C317.138672,18.6373312 318.301327,18.424 319.624,18.424 C320.776006,18.424 321.885328,18.5999982 322.952,18.952 C324.018672,19.3040018 324.957329,19.8106634 325.768,20.472 L324.584,23.192 C322.962659,21.9973274 321.298675,21.4 319.592,21.4 C318.674662,21.4 317.960003,21.570665 317.448,21.912 C316.935998,22.253335 316.68,22.7226637 316.68,23.32 C316.68,23.7893357 316.834665,24.1626653 317.144,24.44 C317.453335,24.7173347 317.98133,24.951999 318.728,25.144 L321.48,25.752 C323.080008,26.1146685 324.247996,26.6746629 324.984,27.432 C325.720004,28.1893371 326.088,29.1759939 326.088,30.392 C326.088,31.8853408 325.490673,33.069329 324.296,33.944 C323.101327,34.818671 321.469344,35.256 319.4,35.256 Z" id="Resources" fill="#FA6A49"></path>
                <g id="baseline-group_add-24px">
                    <polygon id="Path" points="0 0 48 0 48 48 0 48"></polygon>
                    <path d="M16,20 L10,20 L10,14 L6,14 L6,20 L0,20 L0,24 L6,24 L6,30 L10,30 L10,24 L16,24 L16,20 Z M36,22 C39.32,22 41.98,19.32 41.98,16 C41.98,12.68 39.32,10 36,10 C35.36,10 34.74,10.1 34.18,10.28 C35.32,11.9 35.98,13.86 35.98,16 C35.98,18.14 35.3,20.08 34.18,21.72 C34.74,21.9 35.36,22 36,22 Z M26,22 C29.32,22 31.98,19.32 31.98,16 C31.98,12.68 29.32,10 26,10 C22.68,10 20,12.68 20,16 C20,19.32 22.68,22 26,22 Z M39.24,26.32 C40.9,27.78 42,29.64 42,32 L42,36 L48,36 L48,32 C48,28.92 43.26,27.02 39.24,26.32 Z M26,26 C22,26 14,28 14,32 L14,36 L38,36 L38,32 C38,28 30,26 26,26 Z" id="Shape" fill="#FA6A49" fill-rule="nonzero"></path>
                </g>
            </g>
        </g>
    </g>
</svg>